<?xml version="1.0" standalone="no"?>
<!DOCTYPE svg PUBLIC "-//W3C//DTD SVG 1.1//EN" "http://www.w3.org/Graphics/SVG/1.1/DTD/svg11.dtd" >
<svg>
<metadata>
Created by FontForge 20090914 at Mon May 14 05:44:41 2012
 By www-data
Copyright (c) 1992 VNI All Rights Reserved.
</metadata>
<defs>
<font id="VNI-Helve-Condense" horiz-adv-x="506" >
  <font-face 
    font-family="VNI-Helve-Condense"
    font-weight="400"
    font-stretch="normal"
    units-per-em="1000"
    panose-1="0 0 0 0 0 0 0 0 0 0"
    ascent="800"
    descent="-200"
    x-height="555.999"
    cap-height="750"
    bbox="-450.001 -224.001 1071 1120"
    underline-thickness="58"
    underline-position="-61"
    unicode-range="U+0020-U+2122"
  />
<missing-glyph horiz-adv-x="784" 
d="M49 0v784h686v-784h-686zM686 49v686h-588v-686h588z" />
    <glyph glyph-name=".notdef" horiz-adv-x="784" 
d="M49 0v784h686v-784h-686zM686 49v686h-588v-686h588z" />
    <glyph glyph-name="space" unicode=" " horiz-adv-x="342" 
 />
    <glyph glyph-name="exclam" unicode="!" horiz-adv-x="342" 
d="M144 184l-22 336v230h90v-230l-22 -336h-46zM212 0h-90v100h90v-100z" />
    <glyph glyph-name="quotedbl" unicode="&#x22;" horiz-adv-x="260" 
d="M44 514v226h52v-226h-52zM156 514v226h52v-226h-52z" />
    <glyph glyph-name="numbersign" unicode="#" 
d="M34 0l78 254h-106l16 60h108l38 124h-108l16 58h110l78 254h56l-78 -254h88l76 254h56l-78 -254h112l-18 -58h-112l-38 -124h112l-14 -60h-116l-78 -254h-54l78 254h-88l-80 -254h-54zM186 314h88l38 124h-88z" />
    <glyph glyph-name="dollar" unicode="$" 
d="M268 326v-264.001l8 -2c36 0 62.333 11.167 79 33.5s25 52.5 25 90.5c0 40 -9.33301 70.667 -28 92c-14.667 16.667 -42.667 33.334 -84 50.001zM226 61.999l0.000976562 279.998c-61.333 28.667 -103.666 53.667 -126.999 75c-38 34.667 -57 79 -57 133
c0 58.667 16.5 106.667 49.5 144s77.833 56 134.5 56v66h44v-66c57.333 0 100.666 -17.333 129.999 -52s44 -82 44 -142v-6h-80c0 29.333 -2 51.333 -6 66c-6.66699 24.667 -19.334 41.334 -38.001 50.001c-18 6.66699 -34.667 10 -50 10v-256
c60.667 -27.333 100.334 -47 119.001 -59c51.333 -34 77 -86.333 77 -157c0 -68 -16 -121 -48 -159c-34 -40.667 -84 -61 -150 -61v-100h-42v100c-67.333 0 -117 20.333 -149 61c-28.667 36.667 -43 88.334 -43 155.001l2 32h80c0 -58 4.33301 -97 13 -117
c15.333 -35.333 47.666 -53 96.999 -53zM226.001 435.997v240.001c-27.333 0 -49.666 -8.33301 -66.999 -25c-20.667 -20 -31 -49.667 -31 -89c0 -32.667 9.33301 -59 28 -79c13.333 -14.667 36.666 -30.334 69.999 -47.001z" />
    <glyph glyph-name="percent" unicode="%" horiz-adv-x="846" 
d="M596 750l-332 -766h-54l334 766h52zM756 186c0 -64 -12.5 -110.999 -37.5 -140.999s-59.167 -45 -102.5 -45h-4c-36 0 -65 14 -87 42c-26 33.333 -39 82.666 -39 147.999c0 52 9.66699 92 29 120c23.333 34.667 60.333 52 111 52c46.667 0 81 -18.333 103 -55
c18 -30 27 -70.333 27 -121zM622 56.001c26.667 0 45.334 13.001 56.001 39.001c8 19.333 12 44.333 12 75c0 40 -2.66699 68.667 -8 86c-10.667 33.333 -31.334 50 -62.001 50c-28.667 0 -48 -16.333 -58 -49c-5.33301 -18 -8 -47 -8 -87
c0 -32.667 3.33301 -57.334 10 -74.001c10.667 -26.667 30 -40 58 -40zM194 736.002c48 0 83.001 -18.665 105.001 -55.998c18 -30 27 -70.667 27 -122c0 -64.667 -9.83301 -111.834 -29.5 -141.501s-50.5 -44.5 -92.5 -44.5l-18 2c-44.667 4 -76.667 18.667 -96 44
c-22.667 29.333 -34 76.666 -34 141.999c0 52.667 9.66699 93.667 29 123c23.333 35.333 59.666 53 108.999 53zM190.001 430.004c20.667 0 37.167 8.66797 49.5 26.001s18.5 46.666 18.5 87.999c0 40 -2.66699 68.667 -8 86c-10 33.333 -30 50 -60 50
c-29.333 0 -49 -16.333 -59 -49c-6 -19.333 -9 -48.333 -9 -87c0 -32 3.66699 -56.667 11 -74c11.333 -26.667 30.333 -40 57 -40z" />
    <glyph glyph-name="ampersand" unicode="&#x26;" horiz-adv-x="682" 
d="M428 128l-161.999 242c-36 -26 -61.333 -49.667 -76 -71c-18.667 -27.333 -28 -60.333 -28 -99c0 -44 12.667 -78.667 38 -104s60 -38 104 -38c24.667 0 47.167 6.16699 67.5 18.5s39.166 29.5 56.499 51.5zM292.001 470c27.333 20 47.001 38.332 59.001 54.999
c16.667 22.667 25 48.334 25 77.001c0 22.667 -6.33301 42 -19 58s-30.334 24 -53.001 24c-20.667 0 -37.5 -7.83301 -50.5 -23.5s-19.5 -34.5 -19.5 -56.5c0 -21.333 6.33301 -45 19 -71c6.66699 -14 19.667 -35 39 -63zM328.002 413.999l144 -210.001
c16 45.333 26 92 30 140h74c-4 -44 -9 -79.333 -15 -106c-8.66699 -36.667 -21.667 -70 -39 -100l98 -140h-100l-48 70c-45.333 -57.333 -104 -86 -176 -86c-68 0 -121.667 19.333 -161 58s-59 92 -59 160c0 52.667 14.333 97.667 43 135c21.333 28 58.333 59 111 93
c-24 31.333 -41 57.333 -51 78c-14 29.333 -21 59.333 -21 90c0 42.667 13 79 39 109s60.333 45 103 45c46.667 0 84.667 -13.333 114 -40s44 -62.667 44 -108c0 -37.333 -13.667 -73.666 -41 -108.999c-22 -28 -51.667 -54.333 -89 -79z" />
    <glyph glyph-name="quotesingle" unicode="'" horiz-adv-x="260" 
d="M100 514v226h52v-226h-52z" />
    <glyph glyph-name="parenleft" unicode="(" horiz-adv-x="342" 
d="M232 750l52 -0.00292969c-41.333 -86.667 -67.333 -145.667 -78 -177c-30.667 -91.333 -46 -191.666 -46 -300.999c0 -94.667 9.83301 -179.5 29.5 -254.5s53.167 -152.833 100.5 -233.5h-58c-50 82 -87.333 158 -112 228c-29.333 82.667 -44 165.334 -44 248.001
c0 94.667 13 180.334 39 257.001c21.333 63.333 60.333 141 117 233z" />
    <glyph glyph-name="parenright" unicode=")" horiz-adv-x="342" 
d="M102 -216h-52c42 90.667 68 150.334 78 179.001c30.667 91.333 46 191.666 46 300.999c0 94.667 -9.83301 179 -29.5 253s-53.167 151.667 -100.5 233h58c50 -81.333 87.333 -156.666 112 -225.999c29.333 -82.667 44 -165.334 44 -248.001
c0 -94.667 -13 -180.667 -39 -258c-22 -64.667 -61 -142.667 -117 -234z" />
    <glyph glyph-name="asterisk" unicode="*" 
d="M114 670l112 -44v124h52v-122l112 42l16 -48l-114 -38l76 -96l-42 -32l-78 98l-72 -94l-42 28l74 92l-112 46z" />
    <glyph glyph-name="plus" unicode="+" 
d="M216 290v216h70v-216h172v-70h-172v-220h-70v220h-172v70h172z" />
    <glyph glyph-name="comma" unicode="," horiz-adv-x="260" 
d="M130 0l-50.001 0.000976562v100h92v-20v-61c-2 -18 -3.33301 -30.333 -4 -37c0 -24 -3.66699 -45 -11 -63s-19.666 -33 -36.999 -45c-10.667 -8.66699 -24 -15.334 -40 -20.001v44c5.33301 1.33301 9.83301 3 13.5 5s7.16699 5 10.5 9c10 10.667 16.833 23.5 20.5 38.5
s5.5 31.5 5.5 49.5z" />
    <glyph glyph-name="hyphen" unicode="-" horiz-adv-x="342" 
d="M288 276h-242v82h242v-82z" />
    <glyph glyph-name="period" unicode="." horiz-adv-x="260" 
d="M172 0h-92v100h92v-100z" />
    <glyph glyph-name="slash" unicode="/" horiz-adv-x="282" 
d="M48 -28h-62l244 778h62z" />
    <glyph glyph-name="zero" unicode="0" 
d="M132 382l-1.99902 -99.999c0 -69.333 6.66699 -120.666 20 -153.999c18 -45.333 51.333 -68 100 -68c51.333 0 85.666 31.667 102.999 95c11.333 41.333 17 107.666 17 198.999v72c0 72 -6 126.667 -18 164c-18.667 57.333 -52.667 86 -102 86h-8
c-44 0 -75 -29.333 -93 -88c-12.667 -40.667 -19 -93.334 -19 -158.001zM250.001 -15.999c-61.333 0 -108.667 23.333 -142 70c-26.667 37.333 -44.667 89.333 -54 156c-5.33301 38 -8 91.333 -8 160c0 68 3 121.333 9 160c10 65.333 28.333 116 55 152
c33.333 45.333 80 68 140 68c62 0 109.667 -20.667 143 -62c26.667 -33.333 44.667 -81.333 54 -144c6 -40 9 -92.667 9 -158v-16c0 -77.333 -3 -135.666 -9 -174.999c-10 -64.667 -28.667 -114.334 -56 -149.001c-32.667 -41.333 -79.667 -62 -141 -62z" />
    <glyph glyph-name="one" unicode="1" 
d="M234 0l-0.000976562 546h-160v66c58.667 0 100.334 8.33301 125.001 25c29.333 20 47 57.667 53 113h66v-750h-84z" />
    <glyph glyph-name="two" unicode="2" 
d="M320 308l-135.998 -123.999c-18.667 -16.667 -32.334 -33.334 -41.001 -50.001s-13 -36 -13 -58h318v-76h-404c0 30.667 2.16699 58.667 6.5 84s12.166 51.333 23.499 78c5.33301 11.333 14 24.333 26 39c9.33301 11.333 20.666 23.666 33.999 36.999l142 138
c31.333 30 52.166 55.5 62.499 76.5s15.5 51.5 15.5 91.5c0 41.333 -7.66699 72.666 -23 93.999c-18 25.333 -47 38 -87 38c-43.333 0 -74 -17.667 -92 -53c-13.333 -26 -20 -62.333 -20 -109l2 -18h-84v46c0 28.667 3.83301 55.334 11.5 80.001s19.834 48 36.501 70
c16.667 16.667 34 29.334 52 38.001c28 13.333 60.667 20 98 20c62.667 0 110.334 -18.667 143.001 -56s49 -88 49 -152c0 -52 -10.333 -96 -31 -132c-16 -28 -45.667 -62 -89 -102z" />
    <glyph glyph-name="three" unicode="3" 
d="M188 350v74h26c40.667 0 70 6 88 18c28 18.667 42 55.334 42 110.001c0 40.667 -7 70.667 -21 90c-16.667 22.667 -45 34 -85 34c-42.667 0 -72 -14.667 -88 -44c-12 -22 -18 -56.667 -18 -104h-80l-2 12c0 62 15.333 111.667 46 149c33.333 40.667 81.333 61 144 61
c56.667 0 102.167 -16.833 136.5 -50.5s51.5 -78.834 51.5 -135.501c0 -42 -7.66699 -76.333 -23 -103c-17.333 -30 -45 -51.667 -83 -65c42 -9.33301 74 -30.333 96 -63c20 -30 30 -67 30 -111c0 -74 -16.333 -131 -49 -171c-36.667 -44.667 -91 -67 -163 -67
c-70 0 -121.667 21.333 -155 64c-30 38 -45 92.667 -45 164l2 8h82l-2 -24c0 -39.333 9 -70.666 27 -93.999c21.333 -28 54.333 -42 99 -42c40 0 70 12.167 90 36.5s30 56.833 30 97.5c0 63.333 -12.667 105.166 -38 125.499s-71.333 30.5 -138 30.5z" />
    <glyph glyph-name="four" unicode="4" 
d="M302 620l-208 -358h208v358zM28 264l280 486h76v-488h68v-74h-68v-188h-82v188h-274v76z" />
    <glyph glyph-name="five" unicode="5" 
d="M44 196h86l-2 -14c0 -38 9.16699 -67.833 27.5 -89.5s46.5 -32.5 84.5 -32.5c41.333 0 72.333 18.333 93 55c18 32 27 74.333 27 127c0 52 -7.33301 92 -22 120c-20 37.333 -54 56 -102 56c-50.667 0 -86 -22.667 -106 -68h-74l44 386h320v-76h-252l-34 -222
c18 18 36.667 31.5 56 40.5s41.333 13.5 66 13.5c64.667 0 113.667 -24.333 147 -73c28.667 -42 43 -97 43 -165c0 -76 -14.333 -137.333 -43 -184c-35.333 -57.333 -89 -86 -161 -86c-62.667 0 -111.667 17.333 -147 52s-53 82.667 -53 144z" />
    <glyph glyph-name="six" unicode="6" 
d="M372 242c0 47.333 -7.99902 84.333 -23.999 111c-20 32.667 -52 49 -96 49c-44.667 0 -76.334 -16.333 -95.001 -49c-14 -24 -21 -58.333 -21 -103l-2 -22c0 -58.667 11.667 -102 35 -130c21.333 -25.333 51 -38 89 -38c44 0 75.333 20.667 94 62
c13.333 29.333 20 69.333 20 120zM260.001 -16c-90 0 -151.334 38.998 -184.001 116.998c-21.333 50.667 -32 128.334 -32 233.001c0 76.667 3 135.667 9 177c10 70.667 29.667 125.667 59 165c36.667 49.333 88 74 154 74c54.667 0 97.334 -16 128.001 -48
s46 -75.333 46 -130h-84c0 34.667 -8 60.667 -24 78s-41.333 26 -76 26c-55.333 0 -93 -38.667 -113 -116c-11.333 -43.333 -17 -102 -17 -176c14 30.667 33.667 53.667 59 69s52.333 23 81 23c63.333 0 112 -23 146 -69c30.667 -41.333 46 -94.333 46 -159
c0 -79.333 -18.5 -143.166 -55.5 -191.499s-84.5 -72.5 -142.5 -72.5z" />
    <glyph glyph-name="seven" unicode="7" 
d="M44 660l-0.000976562 76h412v-70c-75.333 -103.333 -134 -208.333 -176 -315c-46.667 -119.333 -70 -236.333 -70 -351h-94c30.667 244.667 121.334 464.667 272.001 660h-344z" />
    <glyph glyph-name="eight" unicode="8" 
d="M132 218c0 -47.333 8.33398 -84 25.001 -110c20.667 -32 53.667 -48 99 -48c35.333 0 62.833 13.833 82.5 41.5s29.5 67.167 29.5 118.5c0 42 -8.66699 75.333 -26 100c-20.667 29.333 -51.334 44 -92.001 44c-40 0 -70.333 -14.667 -91 -44c-18 -26 -27 -60 -27 -102z
M156.001 562l-2 -8.00098c0 -35.333 8.5 -63.166 25.5 -83.499s41.833 -30.5 74.5 -30.5c34.667 0 59.667 11.667 75 35c12.667 19.333 19 47.666 19 84.999c0 36 -6.33301 63.333 -19 82c-15.333 22.667 -40.333 34 -75 34c-35.333 0 -60.5 -9.66699 -75.5 -29
s-22.5 -47.666 -22.5 -84.999zM188.001 403.999c-42 8.66699 -72.166 27.332 -90.499 55.999s-27.5 66 -27.5 112c0 48.667 13.667 88.667 41 120c34 38.667 83.667 58 149 58c53.333 0 95.666 -15.667 126.999 -47s47 -77 47 -137c0 -40.667 -8.66699 -74.667 -26 -102
c-20 -31.333 -49.333 -50.666 -88 -57.999c44 -8.66699 78 -30.667 102 -66c21.333 -32 32 -70 32 -114c0 -70.667 -15 -127 -45 -169c-34.667 -48.667 -86.334 -73 -155.001 -73c-67.333 0 -118.833 20.167 -154.5 60.5s-53.5 97.5 -53.5 171.5
c0 55.333 15.667 100.333 47 135c26.667 29.333 58.334 47 95.001 53z" />
    <glyph glyph-name="nine" unicode="9" 
d="M368 490c0 50.667 -7.66602 91.666 -22.999 122.999c-20.667 42 -53.667 63 -99 63c-42.667 0 -73.667 -19 -93 -57c-15.333 -29.333 -23 -67.666 -23 -114.999c0 -48 7.33301 -86 22 -114c19.333 -37.333 50.666 -56 93.999 -56s75.333 16 96 48
c17.333 26.667 26 62.667 26 108zM242.001 749.999c90 0 151.335 -38.668 184.002 -116.001c21.333 -50 32 -127.333 32 -232c0 -76 -3 -135 -9 -177c-10.667 -72 -30.334 -127.667 -59.001 -167c-36 -49.333 -87.333 -74 -154 -74c-54.667 0 -97.334 16.333 -128.001 49
s-46 76.334 -46 131.001h84c0 -34.667 8 -60.667 24 -78s41.333 -26 76 -26c55.333 0 93 38.667 113 116c11.333 43.333 17 102 17 176c-14 -30.667 -33.667 -53.667 -59 -69s-52.333 -23 -81 -23c-63.333 0 -112 23 -146 69c-30.667 41.333 -46 94.333 -46 159
c0 79.333 18.5 142.833 55.5 190.5s84.5 71.5 142.5 71.5z" />
    <glyph glyph-name="colon" unicode=":" horiz-adv-x="260" 
d="M172 0h-92v100h92v-100zM172 448h-92v100h92v-100z" />
    <glyph glyph-name="semicolon" unicode=";" horiz-adv-x="260" 
d="M80 0l-0.000976562 100.001h92v-20v-61c-2 -18 -3.33301 -30.333 -4 -37c0 -24 -3.66699 -45 -11 -63s-19.666 -33 -36.999 -45c-10.667 -8.66699 -24 -15.334 -40 -20.001v44c5.33301 1.33301 9.83301 3 13.5 5s7.16699 5 10.5 9c10 10.667 16.833 23.5 20.5 38.5
s5.5 31.5 5.5 49.5h-50zM171.999 448.001h-92v100h92v-100z" />
    <glyph glyph-name="less" unicode="&#x3c;" 
d="M120 254l340 -190v-74l-418 232v64l418 232v-72z" />
    <glyph glyph-name="equal" unicode="=" 
d="M458 384v-70h-414v70h414zM458 194v-70h-414v70h414z" />
    <glyph glyph-name="greater" unicode="&#x3e;" 
d="M42 64l340 190l-340 192v72l418 -232v-64l-418 -232v74z" />
    <glyph glyph-name="question" unicode="?" 
d="M288 172h-90.001c0 52.667 4.16699 90 12.5 112s30.833 53.333 67.5 94l38 46c19.333 24 33.5 45.5 42.5 64.5s13.5 41.5 13.5 67.5c0 34 -7.66699 62 -23 84c-18.667 26.667 -45 40 -79 40c-45.333 0 -78.333 -16 -99 -48c-16.667 -26 -25 -62 -25 -108l2 -10h-88l-2 12
c0 63.333 15.667 115 47 155c36 46 87 69 153 69c62 0 111.5 -16.833 148.5 -50.5s55.5 -79.5 55.5 -137.5c0 -62.667 -23.667 -121 -71 -175c-54 -62 -81.667 -93.667 -83 -95c-4.66699 -8 -8 -14 -10 -18s-4 -9.33301 -6 -16c-1.33301 -8.66699 -2.66602 -19 -3.99902 -31
s-2 -19 -2 -21zM289.999 0h-92v100h92v-100z" />
    <glyph glyph-name="at" unicode="@" horiz-adv-x="812" 
d="M432 536c-49.333 0 -91.6689 -28.3311 -127.002 -84.998c-31.333 -50 -47 -101.667 -47 -155c0 -26.667 6.83301 -49.334 20.5 -68.001s32.834 -28 57.501 -28c23.333 0 46.333 10.333 69 31c18 16.667 33 37 45 61c14.667 29.333 26.334 57 35.001 83
c11.333 34 17 63.667 17 89c0 19.333 -6.5 36.166 -19.5 50.499s-29.833 21.5 -50.5 21.5zM543.997 530.002l13.9961 45.999h70l-104 -304c-1.33301 -4.66699 -3.66602 -13.334 -6.99902 -26.001s-5 -21.334 -5 -26.001c0 -20 10 -30 30 -30
c20.667 0 42.334 8.5 65.001 25.5s41 35.833 55 56.5c17.333 23.333 30.333 48.833 39 76.5s13 56.834 13 87.501c0 78.667 -30.667 143.334 -92 194.001c-58 48 -126.667 72 -206 72c-92.667 0 -170.5 -33.167 -233.5 -99.5s-94.5 -145.833 -94.5 -238.5
c0 -90.667 32.333 -168.334 97 -233.001s142.334 -97 233.001 -97c52.667 0 102.834 12.5 150.501 37.5s86.834 59.167 117.501 102.5h60c-31.333 -57.333 -77.333 -103.333 -138 -138s-124 -52 -190 -52c-108 0 -198.667 37.667 -272 113s-110 167 -110 275
c0 104.667 37.5 193.834 112.5 267.501s165.5 110.5 271.5 110.5c90 0 168.667 -28.667 236 -86c72 -62 108 -139.333 108 -232c0 -66 -20 -127.333 -60 -184c-24 -32.667 -49.333 -58.334 -76 -77.001c-32 -22 -65.333 -33 -100 -33c-20 0 -38.167 4.33301 -54.5 13
s-27.5 21.667 -33.5 39c-15.333 -16 -33.5 -28.333 -54.5 -37s-42.833 -13 -65.5 -13c-42 0 -75.833 14.333 -101.5 43s-38.5 64.334 -38.5 107.001c0 74 23 142 69 204c50 68 110.333 102 181 102c25.333 0 48.166 -5.66699 68.499 -17s35.5 -27.666 45.5 -48.999z" />
    <glyph glyph-name="A" unicode="A" horiz-adv-x="564" 
d="M12 0l214 750h110l210 -750h-92l-58 216h-238l-54 -216h-92zM376 292l-96 398l-102 -398h198z" />
    <glyph glyph-name="B" unicode="B" horiz-adv-x="564" 
d="M164 76h130.001l4 -2c41.333 0 71.666 11.667 90.999 35s29 59 29 107c0 58 -15.667 97.333 -47 118c-20.667 13.333 -55 20 -103 20h-104v-278zM164.001 676v-246h74l30 -2c42 0 73 8.33301 93 25c23.333 19.333 35 52.333 35 99v6c0 44.667 -10.333 75.5 -31 92.5
s-59.667 25.5 -117 25.5h-84zM278.001 0l-198 0.00195312v750h222c62 0 108.667 -17.333 140 -52c29.333 -32 44 -76.667 44 -134v-10c0 -40 -8.33301 -72.167 -25 -96.5s-45.667 -43.5 -87 -57.5c46.667 -6.66699 80.667 -26.334 102 -59.001
c18.667 -28.667 28 -68.334 28 -119.001c0 -72 -18.333 -127 -55 -165s-89 -57 -157 -57h-14z" />
    <glyph glyph-name="C" unicode="C" horiz-adv-x="564" 
d="M504 526l-84.0039 -0.00195312c0 49.333 -9.33301 87.666 -28 114.999c-22 32.667 -57.333 49 -106 49c-62.667 0 -105 -38 -127 -114c-12.667 -43.333 -19 -106.666 -19 -189.999l-2 -54c0 -73.333 8.66699 -132.666 26 -177.999c24.667 -64 65.334 -96 122.001 -96
c44.667 0 77.334 16.667 98.001 50c15.333 24 26 61.333 32 112l4 52h84l-4 -46c-4.66699 -46 -8 -74 -10 -84c-6 -26 -17.333 -51.333 -34 -76c-20 -27.333 -43.5 -48.166 -70.5 -62.499s-58.167 -21.5 -93.5 -21.5c-71.333 0 -126 21.333 -164 64
c-30.667 34.667 -51.667 86 -63 154c-7.33301 44.667 -11 106 -11 184c0 144.667 22.667 246.667 68 306c38.667 50.667 95.334 76 170.001 76c66.667 0 119.334 -22.333 158.001 -67c36 -42 54 -96.333 54 -163v-10z" />
    <glyph glyph-name="D" unicode="D" horiz-adv-x="624" 
d="M304 0h-222v750h206c98.667 0 169 -35 211 -105c32.667 -54 49 -131.667 49 -233v-36c0 -110 -15.333 -195.667 -46 -257c-40 -79.333 -106 -119 -198 -119zM166 676l-0.000976562 -600h132c56.667 0 98.167 21 124.5 63s39.5 110.333 39.5 205v46
c0 95.333 -10.333 164.333 -31 207c-25.333 52.667 -69.666 79 -132.999 79h-132z" />
    <glyph glyph-name="E" unicode="E" horiz-adv-x="576" 
d="M158 76h334v-76h-418v750h416v-74h-332v-248h314v-76h-314v-276z" />
    <glyph glyph-name="F" unicode="F" horiz-adv-x="448" 
d="M158 0h-84v750h352v-74h-268v-246h250v-76h-250v-354z" />
    <glyph glyph-name="G" unicode="G" horiz-adv-x="624" 
d="M532 386v-392.002h-64v118c-12 -42 -33.167 -74.167 -63.5 -96.5s-67.166 -33.5 -110.499 -33.5c-68.667 0 -122.334 21.333 -161.001 64c-32 35.333 -54 86 -66 152c-8.66699 46.667 -13 107.334 -13 182.001c0 70.667 5.33301 130 16 178c14 64 37.667 113 71 147
c39.333 40.667 93 61 161 61c69.333 0 124 -21 164 -63s60 -97.667 60 -167v-4h-84c0 48 -10.667 85.667 -32 113c-23.333 30 -58 45 -104 45h-6c-48.667 0 -85.667 -17.333 -111 -52c-20.667 -28 -34.667 -68.667 -42 -122c-4.66699 -34.667 -7 -80.667 -7 -138l-2 -28
c0 -82 7 -144.667 21 -188c22.667 -69.333 63.667 -104 123 -104l12 -2c63.333 0 107 28 131 84c16.667 38.667 25 95.334 25 170.001h-168v76h250z" />
    <glyph glyph-name="H" unicode="H" horiz-adv-x="624" 
d="M162 0h-82v750h82v-312h288v312h82v-750h-82v362h-288v-362z" />
    <glyph glyph-name="I" unicode="I" horiz-adv-x="282" 
d="M182 0h-84v750h84v-750z" />
    <glyph glyph-name="J" unicode="J" horiz-adv-x="448" 
d="M22 236h84.001v-44c0 -44 3.66699 -74.333 11 -91c12 -27.333 37 -41 75 -41s64 13.333 78 40c10.667 20 16 50.667 16 92v558h82v-564c0 -74 -16.333 -127.333 -49 -160c-28 -28 -70.333 -42 -127 -42c-32 0 -59.333 5 -82 15c-26.667 12 -47.334 31 -62.001 57
c-10 18.667 -17.167 40.667 -21.5 66s-6.5 50 -6.5 74z" />
    <glyph glyph-name="K" unicode="K" horiz-adv-x="564" 
d="M164 0h-84v750h82v-384l274 384h104l-240 -314l246 -436h-102l-202 362l-78 -102v-260z" />
    <glyph glyph-name="L" unicode="L" 
d="M472 0h-388v750h82v-674h306v-76z" />
    <glyph glyph-name="M" unicode="M" horiz-adv-x="788" 
d="M408 166l148 584h146v-750h-82v714l-26 -102l-156 -612h-100l-156 622c-4 13.333 -7.66699 27 -11 41s-7 31 -11 51v-98v-616h-84v750h148l146 -584c5.33301 -21.333 9.33301 -40 12 -56s4 -34.667 4 -56z" />
    <glyph glyph-name="N" unicode="N" horiz-adv-x="624" 
d="M452 138v611.998h82v-750h-136l-210 600c-10.667 30.667 -20 68.667 -28 114c-0.666992 -7.33301 -1 -15.166 -1 -23.499v-19.5v-37c0 -12 0.333008 -24 1 -36v-598h-82v750h134l214 -614l13.5 -39.5c4.33301 -13 8.5 -27.167 12.5 -42.5c0.666992 5.33301 1 11 1 17v14
c0 8.66699 -0.166992 17.334 -0.5 26.001s-0.5 17.667 -0.5 27z" />
    <glyph glyph-name="O" unicode="O" horiz-adv-x="552" 
d="M30 392c0 72 4.66602 129.665 13.999 172.998c13.333 62.667 36.666 110.334 69.999 143.001c39.333 38.667 94 58 164 58c68.667 0 122.334 -19.333 161.001 -58c33.333 -33.333 56.666 -80.666 69.999 -141.999c10 -46 15 -104 15 -174c0 -82.667 -5 -149 -15 -199
c-13.333 -66.667 -36.666 -117 -69.999 -151c-38.667 -40 -93 -60 -163 -60c-68 0 -121.333 20 -160 60c-33.333 34 -56.666 84.333 -69.999 151c-10.667 52.667 -16 119 -16 199zM437.999 389.998c0 94 -10.666 164.667 -31.999 212c-26.667 58.667 -70.667 88 -132 88
c-58 0 -100 -27.667 -126 -83c-22.667 -48 -34 -115.667 -34 -203l2 -14c0 -119.333 9.33301 -202 28 -248c22.667 -56 66.667 -84 132 -84s109.666 28 132.999 84c19.333 46 29 128.667 29 248z" />
    <glyph glyph-name="P" unicode="P" horiz-adv-x="564" 
d="M170 676l-0.000976562 -282.001h80c64.667 0 109.667 8 135 24c32.667 20.667 49 61.334 49 122.001c0 52.667 -16 89.667 -48 111c-25.333 16.667 -64.666 25 -117.999 25h-98zM169.999 -0.000976562l-84.001 -0.000976562v750h198
c36.667 0 69.834 -3.16699 99.501 -9.5s54.834 -19.166 75.501 -38.499s36 -42.833 46 -70.5s15 -57.5 15 -89.5c0 -46 -7.66699 -85.333 -23 -118c-18 -38 -45.667 -66 -83 -84c-25.333 -10.667 -58.833 -17 -100.5 -19s-72.834 -3 -93.501 -3h-50v-318z" />
    <glyph glyph-name="Q" unicode="Q" horiz-adv-x="624" 
d="M496 90l85.999 -72l-42 -52l-84 70c-16 -16 -38 -29 -66 -39s-56 -15 -84 -15c-68 0 -121.333 20 -160 60c-33.333 34 -56.666 84.333 -69.999 151c-10.667 52.667 -16 119 -16 199c0 143.333 23.333 243.666 70 300.999c40 48.667 98 73 174 73
c70 0 124.667 -19.333 164 -58c32.667 -32 56 -79.333 70 -142c10.667 -48 16 -106 16 -174c0 -51.333 -3 -99.666 -9 -144.999c-10 -76 -26.333 -128.333 -49 -157zM393.999 86l-74 57.999l44 56l70 -56c8.66699 13.333 16.5 40.5 23.5 81.5s10.5 80.5 10.5 118.5v14
c0 118.667 -9.66699 201.334 -29 248.001c-23.333 56 -67.666 84 -132.999 84s-109.333 -28 -132 -84c-18.667 -45.333 -28 -128 -28 -248v-16c0 -87.333 10.333 -154.333 31 -201c25.333 -56.667 65.666 -85 120.999 -85l6 2c19.333 0 35.333 1.83301 48 5.5
s26.667 11.167 42 22.5z" />
    <glyph glyph-name="R" unicode="R" horiz-adv-x="624" 
d="M170 676v-270h130c48 0 84.333 11.667 109 35s37 56.333 37 99v4c0 56 -19.667 94 -59 114c-23.333 12 -57 18 -101 18h-116zM170 330l0.000976562 -329.999h-84v750h194c83.333 0 144.333 -13.667 183 -41c46 -32.667 69 -87.667 69 -165v-8c0 -44 -13 -80.5 -39 -109.5
s-61 -46.5 -105 -52.5c47.333 -6 79.666 -18.667 96.999 -38s29 -54 35 -104c0 -36.667 2 -71.667 6 -105c4.66699 -28 8 -49 10 -63c4 -14.667 7 -24 9 -28c5.33301 -12 12.333 -18 21 -18v-18h-98c-8.66699 22 -15.167 51.5 -19.5 88.5s-6.5 71.5 -6.5 103.5
c0 41.333 -9 73.666 -27 96.999c-21.333 27.333 -55 41 -101 41h-144z" />
    <glyph glyph-name="S" unicode="S" horiz-adv-x="564" 
d="M484 554l-83.999 -0.000976562v14c0 36 -10.333 65.333 -31 88s-49.667 34 -87 34c-54 0 -91.667 -15 -113 -45c-14 -20 -21 -49.667 -21 -89c0 -50.667 23.333 -84.667 70 -102l120 -44c68 -26 113.667 -54 137 -84c20.667 -26.667 31 -66 31 -118
c0 -70.667 -21 -126 -63 -166s-99 -60 -171 -60c-44 0 -82 7.66699 -114 23c-40.667 20 -70.667 52.333 -90 97c-7.33301 16 -11.833 35.167 -13.5 57.5s-2.5 48.5 -2.5 78.5h82l-2 -24c0 -52 9.66699 -90 29 -114c22.667 -28 61 -42 115 -42
c43.333 0 78.166 11.167 104.499 33.5s39.5 54.5 39.5 96.5c0 50.667 -10.667 85.334 -32 104.001c-9.33301 8 -39.333 21.333 -90 40c-32 11.333 -56.667 20.333 -74 27c-32 12 -56.667 22.333 -74 31c-32.667 16.667 -55.5 39 -68.5 67s-19.5 62.333 -19.5 103
c0 61.333 19.333 111 58 149s88.667 57 150 57c66.667 0 119 -16.5 157 -49.5s57 -81.167 57 -144.5v-18z" />
    <glyph glyph-name="T" unicode="T" 
d="M16 676v74h470v-74h-194v-676h-82v676h-194z" />
    <glyph glyph-name="U" unicode="U" horiz-adv-x="518" 
d="M52 182v568h82v-538c0 -43.333 7 -76.333 21 -99c22.667 -36.667 63 -55 121 -55c54.667 0 93.667 16.333 117 49c16.667 23.333 25 54.333 25 93v550h84v-568c0 -65.333 -20.167 -115 -60.5 -149s-95.5 -51 -165.5 -51s-124.333 16.333 -163 49
c-40.667 34.667 -61 85 -61 151z" />
    <glyph glyph-name="V" unicode="V" horiz-adv-x="564" 
d="M454 750h92l-216 -750h-104l-214 750h92l172 -690z" />
    <glyph glyph-name="W" unicode="W" horiz-adv-x="846" 
d="M390 510l-109.999 -510.001h-102l-160 750h92l98 -516c6.66699 -42 11.167 -72.333 13.5 -91s5.16602 -46.334 8.49902 -83.001c3.33301 28 7 56.333 11 85s9 56.334 15 83.001l110 522h102l100 -516c4 -24 7.66699 -49.167 11 -75.5s7 -59.166 11 -98.499
c3.33301 28 7 56.333 11 85s9 56.334 15 83.001l108 522h92l-176 -750h-102l-100 510c-8 39.333 -13 65 -15 77c-4.66699 30.667 -7 65 -7 103l-13 -97c-4.66699 -32.667 -9 -60.334 -13 -83.001z" />
    <glyph glyph-name="X" unicode="X" horiz-adv-x="564" 
d="M18 0l212 386l-206 364h98l156 -292l158 292h98l-206 -364l212 -386h-102l-160 314l-162 -314h-98z" />
    <glyph glyph-name="Y" unicode="Y" horiz-adv-x="564" 
d="M104 750l174 -376l176 376h92l-226 -458v-292h-84v292l-224 458h92z" />
    <glyph glyph-name="Z" unicode="Z" 
d="M474 0h-446v72l354 604h-344v74h430v-72l-354 -602h360v-76z" />
    <glyph glyph-name="bracketleft" unicode="[" horiz-adv-x="342" 
d="M276 -210h-176v960h176v-60h-98v-838h98v-62z" />
    <glyph glyph-name="backslash" unicode="\" horiz-adv-x="260" 
d="M224 0l-256 750h60l254 -750h-58z" />
    <glyph glyph-name="bracketright" unicode="]" horiz-adv-x="342" 
d="M234 -210h-176v62h98v838h-98v60h176v-960z" />
    <glyph glyph-name="asciicircum" unicode="^" 
d="M226 750h48l158 -416h-54l-128 338l-126 -338h-54z" />
    <glyph glyph-name="underscore" unicode="_" 
d="M500 -120h-500v58h500v-58z" />
    <glyph glyph-name="grave" unicode="`" horiz-adv-x="342" 
d="M36 766h108l90 -142h-68z" />
    <glyph glyph-name="a" unicode="a" horiz-adv-x="448" 
d="M288 166l0.000976562 134.001c-17.333 -9.33301 -37.333 -19.333 -60 -30l-66 -30c-16.667 -7.33301 -28.834 -19.833 -36.501 -37.5s-11.5 -37.167 -11.5 -58.5c0 -30.667 5.5 -53.667 16.5 -69s31.5 -23 61.5 -23c21.333 0 41 7.66699 59 23
c24.667 21.333 37 51.666 37 90.999zM418.001 58.001v-57.998l-18 -4h-26c-25.333 0 -43.333 5.16699 -54 15.5s-17.334 31.833 -20.001 64.5c-11.333 -26 -28.5 -47.833 -51.5 -65.5s-47.833 -26.5 -74.5 -26.5c-52 0 -89.333 14.667 -112 44c-20 26 -30 66 -30 120
c0 32 6.83301 59.833 20.5 83.5s33.5 41.167 59.5 52.5c8.66699 4 40.334 17 95.001 39c43.333 17.333 67 27.666 71 30.999c6 3.33301 10.167 9 12.5 17s3.5 18.333 3.5 31v16c0 30.667 -6.66699 52.667 -20 66s-36 20 -68 20c-34 0 -56.167 -7.33301 -66.5 -22
s-15.5 -40 -15.5 -76h-70l-2 10c0 104 55.333 156 166 156c61.333 0 104.333 -18.667 129 -56c15.333 -23.333 23 -51.333 23 -84v-330l-2 -10c0 -7.33301 1.16699 -13.833 3.5 -19.5s6.5 -9.83398 12.5 -12.501l16 -4z" />
    <glyph glyph-name="b" unicode="b" 
d="M150 264l-2 -10c0 -59.333 5 -103 15 -131c16.667 -47.333 49 -71 97 -71c39.333 0 67.333 20.333 84 61c14.667 36 22 94.333 22 175c0 58 -5 103 -15 135c-16.667 54 -47 81 -91 81c-44.667 0 -76 -24 -94 -72c-12 -32.667 -18 -78 -18 -136zM148 0h-72v750h78v-250
c32.667 48 72 72 118 72c64 0 111 -28.667 141 -86c23.333 -44.667 35 -102 35 -172c0 -99.333 -9.66699 -174 -29 -224c-27.333 -70.667 -75 -106 -143 -106c-26.667 0 -49.667 5.66699 -69 17c-23.333 13.333 -42.333 35 -57 65z" />
    <glyph glyph-name="c" unicode="c" horiz-adv-x="448" 
d="M236 504c-46 0 -77.665 -26.999 -94.998 -80.999c-11.333 -34.667 -17 -83 -17 -145l2 -24c0 -56 5 -98.667 15 -128c16.667 -49.333 47 -74 91 -74c38.667 0 65.667 15 81 45c11.333 22 17 54.333 17 97h76c0 -60 -12.333 -108.333 -37 -145
c-29.333 -43.333 -73 -65 -131 -65c-76.667 0 -130.334 30 -161.001 90c-22 43.333 -33 109.333 -33 198c0 114 18.667 194.333 56 241c31.333 39.333 76.666 59 135.999 59c54 0 95.667 -18.667 125 -56c27.333 -34.667 41 -79.334 41 -134.001h-74c0 35.333 -6 63 -18 83
c-15.333 26 -40 39 -74 39z" />
    <glyph glyph-name="d" unicode="d" 
d="M346 218v69.999c0 60 -4.66699 105.333 -14 136c-16.667 53.333 -48 80 -94 80c-35.333 0 -62 -15.667 -80 -47c-20 -35.333 -30 -93.666 -30 -174.999c0 -96.667 9 -159.167 27 -187.5s46.333 -42.5 85 -42.5c36.667 0 64.667 19.667 84 59c14.667 30 22 65.667 22 107z
M346 749.999l77.998 -0.00195312v-750h-76v74c-18.667 -34 -37.667 -57.5 -57 -70.5s-45.666 -19.5 -78.999 -19.5c-74.667 0 -124 43 -148 129c-10.667 38 -16 93.667 -16 167l-2 22c0 78.667 14 142.334 42 191.001c30.667 52.667 73.334 79 128.001 79
c26.667 0 49.667 -5.66699 69 -17s39 -29.666 59 -54.999z" />
    <glyph glyph-name="e" unicode="e" horiz-adv-x="448" 
d="M126 336l188 -0.000976562c0 50.667 -3.66699 86.667 -11 108c-13.333 40 -40.333 60 -81 60c-40 0 -67.333 -19.667 -82 -59c-9.33301 -25.333 -14 -61.666 -14 -108.999zM318 185.999h73.999v-12c0 -54.667 -14 -99.334 -42 -134.001c-30 -37.333 -72 -56 -126 -56
c-57.333 0 -100.666 21.333 -129.999 64c-33.333 48 -50 125.333 -50 232c0 76.667 11 139.667 33 189c30.667 68.667 79 103 145 103c78.667 0 130 -33.667 154 -101c13.333 -37.333 20 -103.666 20 -198.999h-270v-39c0 -54 4.66699 -93.667 14 -119
c15.333 -41.333 44 -62 86 -62c31.333 0 55 12.333 71 37c14 21.333 21 48.333 21 81v16z" />
    <glyph glyph-name="f" unicode="f" horiz-adv-x="282" 
d="M94 0l-0.000976562 490h-82v66h80v48c0 26 1 47 3 63s7.66699 30.333 17 43c18.667 28 53.334 42 104.001 42l44 -2v-66h-32c-20.667 0 -35.167 -4.66699 -43.5 -14s-12.5 -27.333 -12.5 -54v-60h88v-66h-88v-490h-78z" />
    <glyph glyph-name="g" unicode="g" 
d="M236 504c-45.333 0 -76.332 -28.001 -92.999 -84.001c-10 -33.333 -15 -80.666 -15 -141.999c0 -74.667 6.66699 -129.334 20 -164.001c16 -41.333 42.667 -62 80 -62c52 0 87 28.667 105 86c10 32.667 15 83.334 15 152.001c0 62.667 -7.66699 112 -23 148
c-18.667 44 -48.334 66 -89.001 66zM348.001 555.999h78.001v-488c0 -42 -2 -73.333 -6 -94c-6 -29.333 -18 -58 -36 -86c-16 -26.667 -37.333 -46.334 -64 -59.001s-56 -19 -88 -19c-47.333 0 -85 10.667 -113 32c-30.667 23.333 -48.334 58 -53.001 104h76
c4 -24 13.333 -41.333 28 -52s34.667 -16 60 -16c48.667 0 81.667 18.333 99 55c11.333 24 17 59 17 105v28c-34 -54.667 -74.667 -82 -122 -82c-56.667 0 -99.667 21.667 -129 65c-32.667 48.667 -49 126.334 -49 233.001c0 77.333 10.667 140.333 32 189
c30 67.333 78 101 144 101c54.667 0 96 -26 124 -78z" />
    <glyph glyph-name="h" unicode="h" 
d="M152 372l0.00195312 -372h-78v750h78v-254c20 25.333 41 44.333 63 57s47.667 19 77 19c42.667 0 76 -11.667 100 -35s36 -59 36 -107v-430h-78v408c0 31.333 -6.33301 55.166 -19 71.499s-34.334 24.5 -65.001 24.5c-30 0 -56 -10 -78 -30
c-14.667 -14 -24.334 -28.667 -29.001 -44s-7 -34.666 -7 -57.999z" />
    <glyph glyph-name="i" unicode="i" horiz-adv-x="224" 
d="M152 0h-80v556h80v-556zM152 650h-80v100h80v-100z" />
    <glyph glyph-name="j" unicode="j" horiz-adv-x="224" 
d="M14 -190v71.999c10.667 0 21.167 1 31.5 3s17.333 6.5 21 13.5s6.16699 15 7.5 24s2 18.833 2 29.5v604h78v-578c0 -65.333 -9.66699 -109.666 -29 -132.999s-56.333 -35 -111 -35zM154 649.999h-78v100h78v-100z" />
    <glyph glyph-name="k" unicode="k" horiz-adv-x="448" 
d="M148 0h-78v750h78v-452l192 258h94l-172 -216l178 -340h-92l-140 278l-60 -80v-198z" />
    <glyph glyph-name="l" unicode="l" horiz-adv-x="224" 
d="M152 0h-80v750h80v-750z" />
    <glyph glyph-name="m" unicode="m" horiz-adv-x="788" 
d="M156 372l0.00292969 -372.002h-80v556h76v-70c15.333 25.333 33.666 45.333 54.999 60c24.667 17.333 51 26 79 26c29.333 0 55.5 -8 78.5 -24s40.833 -37.333 53.5 -64c22 30.667 43 52.334 63 65.001c24 15.333 53 23 87 23c37.333 0 71.333 -13.333 102 -40
c14 -12 23.667 -31 29 -57c3.33301 -16 5 -37 5 -63v-412h-80v408c0 33.333 -5.33301 57 -16 71c-12.667 16.667 -35.334 25 -68.001 25c-14 0 -27.167 -2.5 -39.5 -7.5s-23.833 -12.5 -34.5 -22.5c-14.667 -14 -24.334 -28.667 -29.001 -44s-7 -34.666 -7 -57.999v-372h-80
v408c0 31.333 -6 55.166 -18 71.499s-33.333 24.5 -64 24.5c-32 0 -58 -10 -78 -30c-14.667 -13.333 -24 -27.666 -28 -42.999s-6 -35 -6 -59z" />
    <glyph glyph-name="n" unicode="n" 
d="M150 556l0.00292969 -60c21.333 26 42.333 44.667 63 56c23.333 13.333 49.666 20 78.999 20c42.667 0 76 -11.667 100 -35s36 -59 36 -107v-430h-78v408c0 31.333 -6.33301 55.166 -19 71.499s-34.334 24.5 -65.001 24.5c-30 0 -56 -10 -78 -30
c-14.667 -14 -24.334 -28.667 -29.001 -44s-7 -34.666 -7 -57.999v-372h-78v556h76z" />
    <glyph glyph-name="o" unicode="o" horiz-adv-x="444" 
d="M420 298c0 -115.333 -18 -198 -54 -248c-31.333 -44 -80 -66 -146 -66c-64 0 -112 22.333 -144 67c-36 50.667 -54 133 -54 247c0 86.667 16.5 154 49.5 202s82.5 72 148.5 72c67.333 0 118 -24.667 152 -74c32 -46 48 -112.667 48 -200zM338 272
c0 84 -9 143.667 -27 179s-48.333 53 -91 53c-40.667 0 -70.167 -18 -88.5 -54s-27.5 -95.333 -27.5 -178c0 -72 7.66699 -125 23 -159c18 -40.667 49 -61 93 -61s75.333 20.333 94 61c16 34.667 24 87.667 24 159z" />
    <glyph glyph-name="p" unicode="p" 
d="M366 288c0 57.333 -5.33203 102.333 -15.999 135c-18 54 -49.333 81 -94 81c-53.333 0 -86 -39.333 -98 -118c-4 -26 -6 -61.333 -6 -106l-2 -18c0 -60 5 -105 15 -135c16.667 -50 47.667 -75 93 -75c39.333 0 67.666 20.333 84.999 61c15.333 36.667 23 95 23 175z
M152.001 58l0.000976562 -246.001h-80v744h76v-62c13.333 24.667 30.166 43.334 50.499 56.001s42.833 20 67.5 22c63.333 0 111 -28.333 143 -85c26 -46 39 -103 39 -171c0 -97.333 -10.667 -172.333 -32 -225c-28.667 -71.333 -77.334 -107 -146.001 -107
c-26.667 0 -49.667 6.66699 -69 20c-15.333 10.667 -31.666 28.667 -48.999 54z" />
    <glyph glyph-name="q" unicode="q" 
d="M138 254c0 -62 6.66699 -109 20 -141c17.333 -40.667 45.333 -61 84 -61c45.333 0 76 26.333 92 79c9.33301 30.667 14 77 14 139v18c0 62 -4.33301 107.667 -13 137c-16 52.667 -46.333 79 -91 79c-40.667 0 -70 -22.333 -88 -67c-13.333 -33.333 -20 -80.333 -20 -141z
M350 556l76 -0.000976562v-740h-78v246c-38 -52 -78 -78 -120 -78c-58.667 0 -102 23.167 -130 69.5s-42 118.5 -42 216.5l-2 32c0 70.667 12.333 130.667 37 180c30 60 73 90 129 90c27.333 0 51.5 -5.66699 72.5 -17s39.5 -29.666 55.5 -54.999z" />
    <glyph glyph-name="r" unicode="r" horiz-adv-x="342" 
d="M158 556l-0.000976562 -90c30 64 76.667 96 140 96h24v-78c-4.66699 0.666992 -10.667 1.16699 -18 1.5s-12.666 0.5 -15.999 0.5c-39.333 0 -70.5 -13.5 -93.5 -40.5s-34.5 -62.833 -34.5 -107.5v-338h-78v556h76z" />
    <glyph glyph-name="s" unicode="s" horiz-adv-x="448" 
d="M380 408l-76 -0.000976562v6c0 60 -29.333 90 -88 90s-88 -28 -88 -84c0 -31.333 11.667 -54.666 35 -69.999l77 -34c63.333 -28.667 100 -46.667 110 -54c33.333 -25.333 50 -60.666 50 -105.999c0 -52.667 -16.833 -94.5 -50.5 -125.5s-79.5 -46.5 -137.5 -46.5
c-26 0 -52 5 -78 15s-45.5 24.167 -58.5 42.5s-21.833 36.166 -26.5 53.499s-7 35 -7 53l2 14h74l-2 -10c0 -32.667 7.5 -57.5 22.5 -74.5s39.5 -25.5 73.5 -25.5s60.167 7.5 78.5 22.5s27.5 38.833 27.5 71.5c0 38.667 -22.667 67 -68 85l-68 25
c-48 18 -81.333 36.333 -100 55c-24 24 -36 58.333 -36 103c0 48 15 86.333 45 115s69 43 117 43c55.333 0 97.833 -13.167 127.5 -39.5s44.5 -66.5 44.5 -120.5v-4z" />
    <glyph glyph-name="t" unicode="t" horiz-adv-x="282" 
d="M164 708v-152.001h94v-66h-92v-380l-2 -16c0 -5.33301 1 -9.66602 3 -12.999c5.33301 -8.66699 17 -13 35 -13h54v-68h-98c-23.333 -0 -40.333 5.33301 -51 16c-14 14 -21 39.333 -21 76v398h-76v66h76v152h78z" />
    <glyph glyph-name="u" unicode="u" horiz-adv-x="420" 
d="M316 0l-0.00195312 74.002c-31.333 -60 -76 -90 -134 -90c-42.667 0 -75.667 12 -99 36s-35 60 -35 108v428h78v-432c0 -24 5.33301 -42 16 -54s29.334 -18 56.001 -18c40 0 71.333 16.667 94 50c8.66699 13.333 14.834 28.166 18.501 44.499s5.5 34.166 5.5 53.499v356
h78v-556h-78z" />
    <glyph glyph-name="v" unicode="v" horiz-adv-x="448" 
d="M178 0l-164 556h82l126 -488l128 488h82l-168 -556h-86z" />
    <glyph glyph-name="w" unicode="w" horiz-adv-x="682" 
d="M374 556l94 -488l100 488h82l-140 -556h-82l-94 490l-90 -490h-82l-142 556h82l100 -488l90 488h82z" />
    <glyph glyph-name="x" unicode="x" horiz-adv-x="448" 
d="M180 286l-160 270h82l124 -200l122 200h82l-160 -270l166 -286h-82l-130 222l-132 -222h-82z" />
    <glyph glyph-name="y" unicode="y" horiz-adv-x="448" 
d="M182 -14l-175.998 569.999h82l124 -482l132 482h82l-166 -530c-13.333 -44 -20.666 -68.667 -21.999 -74c-10.667 -32.667 -20 -56 -28 -70c-14.667 -25.333 -32.334 -43.666 -53.001 -54.999s-45.667 -17 -75 -17c-6.66699 0 -14.334 0.166992 -23.001 0.5
s-19.667 2.83301 -33 7.5v70c18 -8 37.333 -12 58 -12c36 0 61.333 17 76 51c9.33301 26 16.666 45.667 21.999 59z" />
    <glyph glyph-name="z" unicode="z" horiz-adv-x="400" 
d="M366 0h-342v62l258 430h-246v64h328v-64l-258 -426h260v-66z" />
    <glyph glyph-name="braceleft" unicode="{" horiz-adv-x="282" 
d="M178 190l-0.000976562 -172c0 -30 6 -53.5 18 -70.5s35.333 -30.833 70 -41.5l-18 -2c-58 0 -97.5 11.167 -118.5 33.5s-31.5 60.5 -31.5 114.5v176c0 18.667 -1.33301 32.334 -4 41.001c-4.66699 14 -14 25.667 -28 35c-8 6 -16.833 11 -26.5 15s-20.167 7 -31.5 9
c28 5.33301 50 16 66 32c10.667 10.667 17.334 21.167 20.001 31.5s4 24.5 4 42.5v186c0 25.333 2.5 46.166 7.5 62.499s16.333 30.333 34 42s35.167 18.834 52.5 21.501s42 4 74 4c-34.667 -10.667 -58 -24.334 -70 -41.001s-18 -40.334 -18 -71.001v-186
c0 -36 -6 -62.333 -18 -79c-14.667 -21.333 -42 -35.666 -82 -42.999c40 -9.33301 67.333 -26 82 -50c12 -20 18 -50 18 -90z" />
    <glyph glyph-name="bar" unicode="|" horiz-adv-x="260" 
d="M94 0v750h64v-750h-64z" />
    <glyph glyph-name="braceright" unicode="}" horiz-adv-x="282" 
d="M98 466v172.002c0 29.333 -6 52 -18 68c-14 18 -38 32 -72 42l16 2c58.667 0 99 -11 121 -33s33 -59.667 33 -113v-166l-2 -12c0 -18 2 -32.5 6 -43.5s13.333 -21.167 28 -30.5c16 -12 35.333 -20 58 -24c-29.333 -5.33301 -52 -16 -68 -32
c-8.66699 -8.66699 -14.834 -18.334 -18.501 -29.001s-5.5 -21.667 -5.5 -33l2 -12v-186c0 -26 -2 -45.333 -6 -58c-6 -20 -18 -36 -36 -48s-35.667 -19.333 -53 -22s-42.333 -4 -75 -4c34.667 10.667 58.334 24.667 71.001 42s19 41.333 19 72v186c0 36 6 62.333 18 79
c14.667 21.333 42 35.666 82 42.999c-41.333 9.33301 -69 26 -83 50c-11.333 19.333 -17 49.333 -17 90z" />
    <glyph glyph-name="asciitilde" unicode="~" 
d="M162 332c12.667 0 27.1689 -2.99902 43.502 -8.99902s33.833 -14.333 52.5 -25l35 -19c22 -11.333 38.333 -17 49 -17c17.333 0 33.666 9.33301 48.999 28c11.333 14 22.333 32.667 33 56l34 -48c-14 -32 -29.333 -57 -46 -75c-21.333 -23.333 -44.666 -35 -69.999 -35
c-10 0 -23.667 3.33301 -41 10c-9.33301 3.33301 -33 14.666 -71 33.999c-12.667 6.66699 -23.334 11.667 -32.001 15c-14 6 -26 9 -36 9c-23.333 0 -43.666 -14.333 -60.999 -43c-4.66699 -8 -12.334 -23.667 -23.001 -47l-34 48c21.333 46 41.166 77.167 59.499 93.5
s37.833 24.5 58.5 24.5z" />
    <glyph glyph-name="c128" horiz-adv-x="342" 
 />
    <glyph glyph-name="c129" horiz-adv-x="342" 
 />
    <glyph glyph-name="c141" horiz-adv-x="342" 
 />
    <glyph glyph-name="c142" horiz-adv-x="342" 
 />
    <glyph glyph-name="c143" horiz-adv-x="342" 
 />
    <glyph glyph-name="c144" horiz-adv-x="342" 
 />
    <glyph glyph-name="c157" horiz-adv-x="722" 
d="M674 274l-260.004 0.000976562l1 -55c0 -48.667 4 -84.667 12 -108c14 -39.333 41.333 -59 82 -59c32 0 55.333 14.667 70 44c7.33301 15.333 14 44.666 20 87.999h75c0 -48 -11.333 -90.333 -34 -127c-29.333 -48 -71.666 -72 -126.999 -72
c-63.333 0 -110.666 26.667 -141.999 80c-15.333 -24 -35.166 -43.333 -59.499 -58s-51.5 -22 -81.5 -22c-80 0 -134 33.333 -162 100c-18.667 45.333 -28 113.333 -28 204c0 94.667 15.333 165.334 46 212.001s76.334 70 137.001 70c32 0 61 -6.66699 87 -20
c26.667 -12 48 -31.333 64 -58c14 24 31.833 43 53.5 57s46.5 21 74.5 21c68 0 116.333 -28.333 145 -85c19.333 -38.667 29 -89.334 29 -152.001l-1 -38zM121.996 266.001c0 -62 4 -107 12 -135c15.333 -52.667 47 -79 95 -79c44 0 73 19.667 87 59
c11.333 32 17 90.333 17 175c0 41.333 -1.66699 75.5 -5 102.5s-9 49.167 -17 66.5c-14 32.667 -39.667 49 -77 49c-50 0 -83 -29.333 -99 -88c-8.66699 -34.667 -13 -84.667 -13 -150zM413.996 339.001l185 0.000976562v25c0 42.667 -4.33301 74 -13 94
c-13.333 30.667 -38.333 46 -75 46c-39.333 0 -67 -19.333 -83 -58c-9.33301 -24.667 -14 -60.334 -14 -107.001z" />
    <glyph glyph-name="c158" horiz-adv-x="342" 
 />
    <glyph glyph-name="nonbreakingspace" unicode="&#xa0;" horiz-adv-x="500" 
 />
    <glyph glyph-name="exclamdown" unicode="&#xa1;" horiz-adv-x="333" 
d="M144 388h45l23 -337v-230h-91v230zM121 571h91v-100h-91v100z" />
    <glyph glyph-name="cent" unicode="&#xa2;" 
d="M200 -10l-27.9971 -127.994h-48l32 144c-18.667 9.33301 -35.334 23.333 -50.001 42c-18.667 29.333 -31.334 62.166 -38.001 98.499s-10 76.166 -10 119.499c0 67.333 7 122.333 21 165c21.333 64.667 57.666 103.667 108.999 117c18 5.33301 38.667 8 62 8
c12 0 21.333 -0.666992 28 -2l26 114h50l-30 -128c21.333 -9.33301 39.5 -22.833 54.5 -40.5s24.833 -38.834 29.5 -63.501c2 -11.333 3.83301 -23.5 5.5 -36.5s2.5 -22.167 2.5 -27.5h-78c0 23.333 -2.16699 43.166 -6.5 59.499s-12.166 29.166 -23.499 38.499l-92 -414
c5.33301 -2.66699 16 -4 32 -4c37.333 0 63.666 15 78.999 45c11.333 22 17 53 17 93h74v-10c0 -4 -0.666992 -10.333 -2 -19s-2 -15 -2 -19c-4.66699 -26.667 -10 -47.334 -16 -62.001c-8 -20 -20 -38 -36 -54c-12 -12 -28.667 -22 -50 -30s-41.333 -12 -60 -12
s-36 2 -52 6zM174.003 88.0059l90 402.001c-4 1.33301 -10.667 2 -20 2c-28 0 -49.333 -10 -64 -30c-11.333 -15.333 -20 -38 -26 -68c-5.33301 -20.667 -9 -45 -11 -73s-3 -55 -3 -81c0 -33.333 2.16699 -62.333 6.5 -87s13.5 -46.334 27.5 -65.001z" />
    <glyph glyph-name="sterling" unicode="&#xa3;" 
d="M126 338l-96.001 0.000976562v44h76c-17.333 32 -30 59.333 -38 82c-10.667 29.333 -16 58 -16 86c0 46 12 86 36 120c20 27.333 44.5 47.5 73.5 60.5s63.833 19.5 104.5 19.5c57.333 0 103.833 -15.5 139.5 -46.5s55.834 -74.833 60.501 -131.5l2 -36v-14h-84v22v13
c0 6 -0.666992 13 -2 21c-4.66699 32.667 -17.667 57.167 -39 73.5s-49 24.5 -83 24.5c-40.667 0 -71.167 -12.333 -91.5 -37s-30.5 -57.667 -30.5 -99c0 -30.667 7.66699 -64.334 23 -101.001c4.66699 -10.667 14.334 -29.667 29.001 -57h164v-44h-144l6 -16
c4 -8 7 -17.167 9 -27.5s3 -20.5 3 -30.5c0 -38.667 -11.333 -76.334 -34 -113.001c-18.667 -30.667 -45.334 -59.667 -80.001 -87l2 -2c30 20 64.667 30 104 30h16l28 -4c3.33301 -1.33301 19 -5.33301 47 -12c12.667 -3.33301 22.334 -6 29.001 -8l28 -4
c15.333 0 30.166 2.83301 44.499 8.5s29.5 14.167 45.5 25.5l28 -68c-22.667 -16.667 -42 -27.5 -58 -32.5s-38.667 -7.5 -68 -7.5c-14 0 -38 5.33301 -72 16l-44 14c-20 4 -39.333 6 -58 6c-21.333 0 -41.333 -3.66699 -60 -11c-14 -5.33301 -32 -15.666 -54 -30.999
l-42 62c39.333 32 67.333 60.667 84 86c22.667 34 34 72 34 114c0 19.333 -3 39 -9 59c-2 6 -6.33301 17 -13 33z" />
    <glyph glyph-name="currency" unicode="&#xa4;" 
d="M28 110l40.002 42.002c-14.667 23.333 -25.667 47 -33 71s-11 49.667 -11 77c0 30 3.5 57 10.5 81s18.167 47.667 33.5 71l-40 42l48 54l38 -44c41.333 33.333 88 50 140 50c23.333 0 45.666 -4.16699 66.999 -12.5s42.333 -20.833 63 -37.5l40 44l48 -54l-38 -42
c14 -24.667 24.5 -49.834 31.5 -75.501s10.5 -52.5 10.5 -80.5c0 -26.667 -3.33301 -50.834 -10 -72.501s-17.334 -45.5 -32.001 -71.5l38 -42l-48 -52l-40 42c-42 -33.333 -88 -50 -138 -50c-24.667 0 -47 4 -67 12s-41.667 20.667 -65 38l-38 -42zM250.002 482.002
c-45.333 0 -82.332 -17.333 -110.999 -52s-43 -78 -43 -130c0 -49.333 14.5 -91.333 43.5 -126s65.167 -52 108.5 -52c45.333 0 82.666 17.333 111.999 52s44 78 44 130c0 47.333 -14.333 88.833 -43 124.5s-63.667 53.5 -105 53.5h-6z" />
    <glyph glyph-name="yen" unicode="&#xa5;" 
d="M206 262v30l-224 458h102l166 -376l174 376h94l-230 -458v-30h138v-44h-138v-76h138v-44h-138v-98h-82v98h-138v44h138v76h-138v44h138z" />
    <glyph glyph-name="brokenbar" unicode="&#xa6;" horiz-adv-x="250" 
d="M93 0v300h64v-300h-64zM93 750h64v-300h-64v300z" />
    <glyph glyph-name="section" unicode="&#xa7;" 
d="M196 424c-20 -14 -34 -24.333 -42 -31c-25.333 -22 -38 -47 -38 -75l-2 -6c0 -20 6.33301 -37 19 -51c10 -11.333 28.333 -26.333 55 -45l-2 -2l-6 2l132 -86c31.333 23.333 51.5 43 60.5 59s13.5 33.667 13.5 53c0 18.667 -6.33301 35.667 -19 51
c-14.667 18 -43 42.333 -85 73l-45 30zM148 458c-22 14.667 -39.1689 33.498 -51.502 56.498s-18.5 47.5 -18.5 73.5c0 50 16.5 89.5 49.5 118.5s75.833 43.5 128.5 43.5s93.834 -15.5 123.501 -46.5s44.5 -72.833 44.5 -125.5v-4h-82c0 34.667 -7.66699 61.334 -23 80.001
s-39.666 28 -72.999 28c-25.333 0 -46.333 -7.66699 -63 -23s-25 -35.666 -25 -60.999l-2 -10c0 -18 6.83301 -34 20.5 -48s50.834 -41.333 111.501 -82c76 -52 116.667 -80.333 122 -85c37.333 -33.333 56 -72.333 56 -117c0 -35.333 -10.333 -67.333 -31 -96
c-15.333 -22 -40.333 -45.333 -75 -70c23.333 -18 41.166 -37.167 53.499 -57.5s18.5 -44.5 18.5 -72.5c0 -54 -16.833 -95.5 -50.5 -124.5s-80.834 -43.5 -141.501 -43.5c-53.333 0 -96.333 16.667 -129 50s-49 76 -49 128l2 8h80c0 -37.333 8.83301 -66.666 26.5 -87.999
s44.834 -32 81.501 -32c30 0 54.167 7.66699 72.5 23s27.5 37.666 27.5 66.999c0 27.333 -11 52 -33 74c-19.333 19.333 -67 53.333 -143 102c-54 34.667 -90.833 64.5 -110.5 89.5s-29.5 54.5 -29.5 88.5c0 36 10.667 67.667 32 95c19.333 24.667 46 45 80 61z" />
    <glyph glyph-name="dieresis" unicode="&#xa8;" horiz-adv-x="40" 
d="M-293 1061c38 0 66 -11.999 84 -35.999c14.667 -20 22 -46 22 -78c0 -79.333 -32.667 -119 -98 -119l-14 1c-35.333 0 -61 8.66699 -77 26c-18 19.333 -27 50.666 -27 93.999c0 33.333 7.66699 59.333 23 78c18.667 22.667 47.667 34 87 34zM-296 865.001
c22 0 37.333 8.33301 46 25c6 12 9 28 9 48c0 26 -2 44.333 -6 55c-8 21.333 -24.333 32 -49 32c-23.333 0 -39 -10.333 -47 -31c-4.66699 -12 -7 -30.667 -7 -56c0 -19.333 3 -35 9 -47c8.66699 -17.333 23.667 -26 45 -26z" />
    <glyph glyph-name="copyright" unicode="&#xa9;" horiz-adv-x="812" 
d="M402 -18c-109.333 0 -202.333 38.001 -279 114.001s-115 169.333 -115 280c0 107.333 38.5 199.166 115.5 275.499s169.833 114.5 278.5 114.5c108 0 200 -38 276 -114s114 -168 114 -276c0 -109.333 -38 -202.333 -114 -279s-168 -115 -276 -115zM402 40.001
c92 0 170.333 32.667 235 98s97 144.666 97 237.999c0 92 -32.333 170.333 -97 235s-143 97 -235 97c-92.667 0 -171.5 -32.167 -236.5 -96.5s-97.5 -142.833 -97.5 -235.5c0 -93.333 32.333 -172.666 97 -237.999s143.667 -98 237 -98zM542 304.001l58.0029 -0.00292969
c-4.66699 -46 -24.334 -83.167 -59.001 -111.5s-75.667 -42.5 -123 -42.5c-64.667 0 -117.167 21.833 -157.5 65.5s-60.5 97.834 -60.5 162.501c0 66 19.5 120.167 58.5 162.5s91.5 63.5 157.5 63.5c48 0 88.667 -13.167 122 -39.5s54 -63.166 62 -110.499h-58
c-4.66699 30.667 -18.834 55.334 -42.501 74.001s-51.5 28 -83.5 28c-48.667 0 -86.834 -16.833 -114.501 -50.5s-41.5 -75.5 -41.5 -125.5c0 -50.667 14.167 -93.667 42.5 -129s66.833 -53 115.5 -53c32 0 60 9.66699 84 29s37.333 45 40 77z" />
    <glyph glyph-name="ordfeminine" unicode="&#xaa;" horiz-adv-x="624" 
d="M99 596h440v-452h-440v452z" />
    <glyph glyph-name="guillemotleft" unicode="&#xab;" 
d="M86 342l150 154v-84l-100 -102l100 -102v-82l-150 156v60zM264 342l152 154v-84l-100 -102l100 -102v-82l-152 156v60z" />
    <glyph glyph-name="logicalnot" unicode="&#xac;" horiz-adv-x="833" 
d="M512 75h272.998v-75h-351v59c-22.667 -25.333 -44.167 -44.5 -64.5 -57.5s-44.833 -19.5 -73.5 -19.5c-53.333 0 -98.666 15 -135.999 45c-31.333 25.333 -56 63 -74 113c-11.333 36.667 -19.166 73.167 -23.499 109.5s-6.5 77.833 -6.5 124.5
c0 62.667 2.33301 111.667 7 147c2.66699 19.333 6.83398 38.666 12.501 57.999s13.167 39.333 22.5 60c18 40.667 43.667 71.834 77 93.501s71.666 32.5 114.999 32.5c56.667 0 104 -26.333 142 -79l2 64h353v-75h-275v-246h257v-75h-257v-279zM425.998 248
l-0.000976562 291.999c0 50 -11.167 87.5 -33.5 112.5s-53.166 37.5 -92.499 37.5c-38.667 0 -69.5 -10.333 -92.5 -31s-39.167 -53 -48.5 -97c-4 -24 -8.33301 -56.333 -13 -97l-4 -110c0 -79.333 7 -141.666 21 -186.999c23.333 -74 66 -111 128 -111
c45.333 0 78.333 13.333 99 40c24 30 36 80.333 36 151z" />
    <glyph glyph-name="minus" unicode="&#xad;" horiz-adv-x="342" 
d="M288 276h-242v82h242v-82z" />
    <glyph glyph-name="registered" unicode="&#xae;" horiz-adv-x="812" 
d="M402 766c108 0 200 -38 276 -114s114 -168 114 -276c0 -109.333 -38 -202.333 -114 -279s-168 -115 -276 -115c-109.333 0 -202.333 38 -279 114s-115 169.333 -115 280c0 108 38.333 200 115 276s169.667 114 279 114zM402 708c-92.667 0 -171.5 -32.5 -236.5 -97.5
s-97.5 -143.833 -97.5 -236.5c0 -93.333 32.333 -172.333 97 -237s143.667 -97 237 -97c92 0 170.333 32.333 235 97s97 143.667 97 237c0 92 -32.333 170.667 -97 236s-143 98 -235 98zM466 358l130 -202h-64l-124 202h-98v-202h-56v440h194c24 0 43.833 -1.33301 59.5 -4
s31.167 -9.33398 46.5 -20.001c15.333 -8.66699 27.5 -21.667 36.5 -39s13.5 -35.666 13.5 -54.999c0 -42 -13.333 -73 -40 -93c-24 -18 -56.667 -27 -98 -27zM310 400h82.001l34 -2c35.333 0 62.666 4.66699 81.999 14c26.667 13.333 40 36 40 68c0 30 -12 50.667 -36 62
c-16.667 8 -42.667 12 -78 12h-124v-154z" />
    <glyph glyph-name="macron" unicode="&#xaf;" horiz-adv-x="342" 
d="M324 658h-314v58h314v-58z" />
    <glyph glyph-name="degree" unicode="&#xb0;" horiz-adv-x="882" 
d="M449 616c70 0 126.667 -22.667 170 -68s65 -101 65 -167s-21.667 -121.333 -65 -166s-100 -67 -170 -67c-68.667 0 -124.5 22.5 -167.5 67.5s-64.5 100.167 -64.5 165.5s21.5 120.833 64.5 166.5s98.833 68.5 167.5 68.5z" />
    <glyph glyph-name="plusminus" unicode="&#xb1;" 
d="M216 350v156h70v-156h172v-70h-172v-160h-70v160h-172v70h172zM44 0v70h414v-70h-414z" />
    <glyph glyph-name="twosuperior" unicode="&#xb2;" horiz-adv-x="306" 
d="M198 484l-88.001 -73.9971c-11.333 -11.333 -18.666 -19.666 -21.999 -24.999c-5.33301 -8.66699 -8 -19.667 -8 -33h202v-52h-262c0 18 1.5 35.167 4.5 51.5s8.16699 31.833 15.5 46.5c2.66699 8 7.83398 17.667 15.501 29s14.5 19.666 20.5 24.999l90 80
c30.667 26.667 46 58 46 94c0 23.333 -4.66699 41.166 -14 53.499s-26 18.5 -50 18.5c-23.333 0 -39.833 -8.5 -49.5 -25.5s-14.5 -37.167 -14.5 -60.5l2 -14h-62v28c0 18 2.16699 34.167 6.5 48.5s12.166 28.166 23.499 41.499c10.667 9.33301 22 16.666 34 21.999
c18 8 39.333 12 64 12c40 0 70.667 -11 92 -33s32 -52.333 32 -91c0 -31.333 -6.66699 -58 -20 -80c-10.667 -18 -30 -38.667 -58 -62z" />
    <glyph glyph-name="threesuperior" unicode="&#xb3;" horiz-adv-x="306" 
d="M116 504l-0.000976562 56.001h24c22 0 37.333 3.33301 46 10c13.333 10 20 30 20 60c0 23.333 -4.33301 40.5 -13 51.5s-24.334 16.5 -47.001 16.5c-24 0 -40.333 -7 -49 -21s-13 -33.667 -13 -59h-58l-2 4c0 37.333 10 67.333 30 90c22.667 25.333 54.667 38 96 38
c36.667 0 65.834 -10.167 87.501 -30.5s32.5 -47.5 32.5 -81.5c0 -26 -5 -47.167 -15 -63.5s-27.667 -28.5 -53 -36.5c27.333 -6 47.833 -18.167 61.5 -36.5s20.5 -40.833 20.5 -67.5c0 -44 -10.667 -78 -32 -102c-23.333 -26.667 -58.666 -40 -105.999 -40
c-44 0 -76.667 11.667 -98 35s-32 55.666 -32 96.999l2 8h58l-2 -14c0 -23.333 6 -41.833 18 -55.5s31.333 -20.5 58 -20.5c22.667 0 40 6.66699 52 20s18 32 18 56c0 33.333 -7 56 -21 68s-38.333 18 -73 18h-10z" />
    <glyph glyph-name="acute" unicode="&#xb4;" horiz-adv-x="40" 
d="M-350 936l66 -94l66 94h80l-98 -142h-94l-100 142h80z" />
    <glyph glyph-name="mu" unicode="&#xb5;" 
d="M344 0l-0.00195312 74.002c-31.333 -60 -76 -90 -134 -90c-9.33301 0 -18.833 2.33301 -28.5 7l-27.5 13v-194h-78v746h78v-432c0 -24 5.33301 -42 16 -54s29.334 -18 56.001 -18c40 0 71.333 16.667 94 50c8.66699 13.333 14.834 28.166 18.501 44.499
s5.5 34.166 5.5 53.499v356h78v-556h-78z" />
    <glyph glyph-name="paragraph" unicode="&#xb6;" horiz-adv-x="448" 
d="M158 -116v482c-42 0 -78.833 18.833 -110.5 56.5s-47.5 82.167 -47.5 133.5c0 27.333 4.66699 54 14 80s22.5 48.5 39.5 67.5s35.5 31.5 55.5 37.5s45 9 75 9h208v-866h-80v800h-76v-800h-78z" />
    <glyph glyph-name="periodcentered" unicode="&#xb7;" horiz-adv-x="250" 
d="M125 385c15.333 0 28.167 -5.16699 38.5 -15.5s15.5 -23.166 15.5 -38.499c0 -14.667 -5.16699 -27.334 -15.5 -38.001s-23.166 -16 -38.499 -16c-14 0 -27 5 -39 15c-10 11.333 -15 24.333 -15 39c0 14 5.16699 26.5 15.5 37.5s23.166 16.5 38.499 16.5z" />
    <glyph glyph-name="periodcentered" unicode="&#x2219;" horiz-adv-x="250" 
d="M125 385c15.333 0 28.167 -5.16699 38.5 -15.5s15.5 -23.166 15.5 -38.499c0 -14.667 -5.16699 -27.334 -15.5 -38.001s-23.166 -16 -38.499 -16c-14 0 -27 5 -39 15c-10 11.333 -15 24.333 -15 39c0 14 5.16699 26.5 15.5 37.5s23.166 16.5 38.499 16.5z" />
    <glyph glyph-name="cedilla" unicode="&#xb8;" horiz-adv-x="40" 
d="M-296 756l66 -94l66 94h80l-98 -142h-94l-100 142h80z" />
    <glyph glyph-name="onesuperior" unicode="&#xb9;" horiz-adv-x="306" 
d="M172 624h-104v44c38.667 0 65.667 4.66699 81 14c19.333 12 31 34.667 35 68h50v-450h-62v324z" />
    <glyph glyph-name="ordmasculine" unicode="&#xba;" horiz-adv-x="664" 
d="M113 618h472v-489h-472v489zM157 576v-409h386v409h-386z" />
    <glyph glyph-name="guillemotright" unicode="&#xbb;" 
d="M416 278l-152 -152v82l100 102l-100 102v84l152 -156v-62zM236 278l-150 -152v82l100 102l-100 102v84l150 -156v-62z" />
    <glyph glyph-name="onequarter" unicode="&#xbc;" horiz-adv-x="752" 
d="M618 372l-134 -214h134v214zM442 162l178 288h58v-292h38v-50h-38v-108h-60v108h-176v54zM144 0l452 750h62l-452 -750h-62zM138 624h-104v44c38.667 0 65.667 4.66699 81 14c19.333 12 31 34.667 35 68h50v-450h-62v324z" />
    <glyph glyph-name="onehalf" unicode="&#xbd;" horiz-adv-x="752" 
d="M92 0l452 750h62l-452 -750h-62zM146 624h-104v44c38.667 0 65.667 4.66699 81 14c19.333 12 31 34.667 35 68h50v-450h-62v324zM626 184l-88.001 -73.9971c-11.333 -11.333 -18.666 -19.666 -21.999 -24.999c-5.33301 -8.66699 -8 -19.667 -8 -33h202v-52h-262
c0 18 1.5 35.167 4.5 51.5s8.16699 31.833 15.5 46.5c2.66699 8 7.83398 17.667 15.501 29s14.5 19.666 20.5 24.999l90 80c30.667 26.667 46 58 46 94c0 23.333 -4.66699 41.166 -14 53.499s-26 18.5 -50 18.5c-23.333 0 -39.833 -8.5 -49.5 -25.5
s-14.5 -37.167 -14.5 -60.5l2 -14h-62v28c0 18 2.16699 34.167 6.5 48.5s12.166 28.166 23.499 41.499c10.667 9.33301 22 16.666 34 21.999c18 8 39.333 12 64 12c40 0 70.667 -11 92 -33s32 -52.333 32 -91c0 -31.333 -6.66699 -58 -20 -80
c-10.667 -18 -30 -38.667 -58 -62z" />
    <glyph glyph-name="threequarters" unicode="&#xbe;" horiz-adv-x="752" 
d="M632 372l-134 -214h134v214zM456 162l178 288h58v-292h38v-50h-38v-108h-60v108h-176v54zM158 0l452 750h62l-452 -750h-62zM120 504l-0.000976562 56.001h24c22 0 37.333 3.33301 46 10c13.333 10 20 30 20 60c0 23.333 -4.33301 40.5 -13 51.5
s-24.334 16.5 -47.001 16.5c-24 0 -40.333 -7 -49 -21s-13 -33.667 -13 -59h-58l-2 4c0 37.333 10 67.333 30 90c22.667 25.333 54.667 38 96 38c36.667 0 65.834 -10.167 87.501 -30.5s32.5 -47.5 32.5 -81.5c0 -26 -5 -47.167 -15 -63.5s-27.667 -28.5 -53 -36.5
c27.333 -6 47.833 -18.167 61.5 -36.5s20.5 -40.833 20.5 -67.5c0 -44 -10.667 -78 -32 -102c-23.333 -26.667 -58.666 -40 -105.999 -40c-44 0 -76.667 11.667 -98 35s-32 55.666 -32 96.999l2 8h58l-2 -14c0 -23.333 6 -41.833 18 -55.5s31.333 -20.5 58 -20.5
c22.667 0 40 6.66699 52 20s18 32 18 56c0 33.333 -7 56 -21 68s-38.333 18 -73 18h-10z" />
    <glyph glyph-name="questiondown" unicode="&#xbf;" horiz-adv-x="500" 
d="M353 46h87c0 -68 -14.333 -122.333 -43 -163c-34.667 -48.667 -86.334 -73 -155.001 -73c-61.333 0 -110.666 16.833 -147.999 50.5s-56 79.5 -56 137.5c0 54 16 103 48 147l101 125c9.33301 12.667 16 25.5 20 38.5s6 27.167 6 42.5v36h89
c0 -52.667 -4.16699 -90 -12.5 -112s-31 -53.167 -68 -93.5s-62.167 -73.5 -75.5 -99.5c-11.333 -24.667 -17 -50.667 -17 -78c0 -34.667 7.33301 -62.667 22 -84c18.667 -26.667 45 -40 79 -40c47.333 0 81 17.333 101 52c14.667 27.333 22 65.333 22 114zM211 559h91v-100
h-91v100z" />
    <glyph glyph-name="Agrave" unicode="&#xc0;" horiz-adv-x="40" 
d="M-214 792l-66 94l-66 -94h-80l98 142h94l100 -142h-80zM-264 1042h108l90 -142h-68z" />
    <glyph glyph-name="Aacute" unicode="&#xc1;" horiz-adv-x="40" 
d="M-214 792l-66 94l-66 -94h-80l98 142h94l100 -142h-80zM-168 912l90 142h108l-130 -142h-68z" />
    <glyph glyph-name="Acircumflex" unicode="&#xc2;" horiz-adv-x="40" 
d="M-214 792l-66 94l-66 -94h-80l98 142h94l100 -142h-80z" />
    <glyph glyph-name="Atilde" unicode="&#xc3;" horiz-adv-x="40" 
d="M-214 792l-66 94l-66 -94h-80l98 142h94l100 -142h-80zM-158 1084l47.999 0.00195312c-3.33301 -31.333 -13.833 -57.5 -31.5 -78.5s-41.167 -31.5 -70.5 -31.5c-10 0 -22 2 -36 6c-17.333 6 -29.333 10 -36 12l-36.5 13c-13 4.66699 -24.833 7 -35.5 7
c-12 0 -22.333 -4.33301 -31 -13s-13.667 -19 -15 -31h-48c0 29.333 9.33301 54.666 28 75.999s43.334 32 74.001 32c9.33301 0 20.333 -1.83301 33 -5.5s25 -7.83398 37 -12.501c22.667 -8 34.667 -12.333 36 -13c14.667 -4.66699 27.334 -7 38.001 -7
s20.667 4.83301 30 14.5s14.666 20.167 15.999 31.5z" />
    <glyph glyph-name="Adieresis" unicode="&#xc4;" horiz-adv-x="40" 
d="M-214 792l-66 94l-66 -94h-80l98 142h94l100 -142h-80zM-324 -52h80v-100h-80v100z" />
    <glyph glyph-name="Aring" unicode="&#xc5;" horiz-adv-x="40" 
d="M-214 792l-66 94l-66 -94h-80l98 142h94l100 -142h-80zM-44 1026c-4.66699 -18 -12.668 -34.334 -24.001 -49.001c-8.66699 -11.333 -22.667 -25 -42 -41l-4 -10v-34h-42v14c0 18 1.5 32.5 4.5 43.5s10.167 22.5 21.5 34.5c6 8 10.833 14.833 14.5 20.5
s7.5 12.167 11.5 19.5c0 13.333 -3.66699 25 -11 35s-17.666 15 -30.999 15c-20 0 -33.667 -5.16699 -41 -15.5s-11 -25.166 -11 -44.499h-48v6c0 24 8.66699 45 26 63c20 20.667 46.667 31 80 31c30.667 0 55 -9.33301 73 -28c15.333 -16 23 -36 23 -60z" />
    <glyph glyph-name="AE" unicode="&#xc6;" horiz-adv-x="282" 
d="M182 0h-84v750h84v-750zM230 920c-4.66699 -18 -12.668 -34.333 -24.001 -49c-8.66699 -11.333 -22.667 -25 -42 -41l-4 -10l-2 -12l2 -22h-42l-2 14c0 17.333 1.83301 31.666 5.5 42.999s11.167 23 22.5 35c6 8 10.833 14.833 14.5 20.5s7.5 12.167 11.5 19.5
c0 13.333 -3.66699 25 -11 35s-17.666 15 -30.999 15c-20 0 -33.667 -5.16699 -41 -15.5s-11 -25.166 -11 -44.499h-48l-2 6c0 24 9 45 27 63c20.667 20.667 47.667 31 81 31c30.667 0 55 -9.33301 73 -28c15.333 -16 23 -36 23 -60z" />
    <glyph glyph-name="Ccedilla" unicode="&#xc7;" horiz-adv-x="564" 
d="M504 526l-84.0039 -0.00195312c0 49.333 -9.33301 87.666 -28 114.999c-22 32.667 -57.333 49 -106 49c-62.667 0 -105 -38 -127 -114c-12.667 -43.333 -19 -106.666 -19 -189.999l-2 -54c0 -73.333 8.66699 -132.666 26 -177.999c24.667 -64 65.334 -96 122.001 -96
c44.667 0 77.334 16.667 98.001 50c15.333 24 26 61.333 32 112l4 52h84l-4 -46c-4.66699 -46 -8 -74 -10 -84c-6 -26 -17.333 -51.333 -34 -76c-20 -27.333 -43.5 -48.166 -70.5 -62.499s-58.167 -21.5 -93.5 -21.5c-71.333 0 -126 21.333 -164 64
c-30.667 34.667 -51.667 86 -63 154c-7.33301 44.667 -11 106 -11 184c0 144.667 22.667 246.667 68 306c38.667 50.667 95.334 76 170.001 76c66.667 0 119.334 -22.333 158.001 -67c36 -42 54 -96.333 54 -163v-10zM229.996 -106.002l-16 20l62 86h48l-46 -62
c2 0 5.66699 0.666992 11 2s9.66602 2 12.999 2c22.667 0 42.667 -5.33301 60 -16c21.333 -13.333 32 -32.666 32 -57.999c0 -32 -13.333 -56 -40 -72c-22 -13.333 -50 -20 -84 -20h-8c-30 4 -58 10.667 -84 20l18 40c12 -4.66699 19.667 -7.33398 23 -8.00098
c14 -4 27.667 -6 41 -6c14.667 0 25.334 1.66699 32.001 5s14 9 22 17c2.66699 2.66699 4 8 4 16c0 7.33301 -2.33301 14.5 -7 21.5s-11.667 12.5 -21 16.5l-22 4c-4.66699 0 -10.667 -0.833008 -18 -2.5s-14 -3.5 -20 -5.5z" />
    <glyph glyph-name="Egrave" unicode="&#xc8;" horiz-adv-x="40" 
d="M-134 912c-6 -35.333 -22.833 -64.5 -50.5 -87.5s-59.5 -34.5 -95.5 -34.5c-37.333 0 -69.833 11.333 -97.5 34s-44.5 52 -50.5 88h64c13.333 -40 41.333 -60 84 -60c18 0 34.333 5.5 49 16.5s25 25.5 31 43.5h66zM-442 1070h108l90 -142h-68z" />
    <glyph glyph-name="Eacute" unicode="&#xc9;" horiz-adv-x="40" 
d="M-134 912c-6 -35.333 -22.833 -64.5 -50.5 -87.5s-59.5 -34.5 -95.5 -34.5c-37.333 0 -69.833 11.333 -97.5 34s-44.5 52 -50.5 88h64c13.333 -40 41.333 -60 84 -60c18 0 34.333 5.5 49 16.5s25 25.5 31 43.5h66zM-324 936l90 142h108l-130 -142h-68z" />
    <glyph glyph-name="Ecircumflex" unicode="&#xca;" horiz-adv-x="40" 
d="M-134 912c-6 -35.333 -22.833 -64.5 -50.5 -87.5s-59.5 -34.5 -95.5 -34.5c-37.333 0 -69.833 11.333 -97.5 34s-44.5 52 -50.5 88h64c13.333 -40 41.333 -60 84 -60c18 0 34.333 5.5 49 16.5s25 25.5 31 43.5h66z" />
    <glyph glyph-name="Edieresis" unicode="&#xcb;" horiz-adv-x="40" 
d="M-134 912c-6 -35.333 -22.833 -64.5 -50.5 -87.5s-59.5 -34.5 -95.5 -34.5c-37.333 0 -69.833 11.333 -97.5 34s-44.5 52 -50.5 88h64c13.333 -40 41.333 -60 84 -60c18 0 34.333 5.5 49 16.5s25 25.5 31 43.5h66zM-320 -52h80v-100h-80v100z" />
    <glyph glyph-name="Igrave" unicode="&#xcc;" horiz-adv-x="282" 
d="M182 0h-84v750h84v-750zM0 946h110l88 -142h-66z" />
    <glyph glyph-name="Iacute" unicode="&#xcd;" horiz-adv-x="282" 
d="M182 0h-84v750h84v-750zM90 812l88 142h110l-132 -142h-66z" />
    <glyph glyph-name="Icircumflex" unicode="&#xce;" horiz-adv-x="564" 
d="M104 750l174 -376l176 376h92l-226 -458v-292h-84v292l-224 458h92zM240 -60h80v-100h-80v100z" />
    <glyph glyph-name="Idieresis" unicode="&#xcf;" horiz-adv-x="40" 
d="M-324 -54h80v-100h-80v100z" />
    <glyph glyph-name="Eth" unicode="&#xd0;" horiz-adv-x="282" 
d="M182 0h-84v750h84v-750zM24 924h80v-100h-80v100zM254 824h-80v100h80v-100z" />
    <glyph glyph-name="Ntilde" unicode="&#xd1;" horiz-adv-x="624" 
d="M82 424v326h206c98.667 0 169 -35 211 -105c32.667 -54 49 -131.667 49 -233v-36c0 -110 -15.333 -195.667 -46 -257c-40 -79.333 -106 -119 -198 -119h-222v344h-42v80h42zM166 676l-0.000976562 -252h130v-80h-130v-268h132c56.667 0 98.167 21 124.5 63
s39.5 110.333 39.5 205v46c0 95.333 -10.333 164.333 -31 207c-25.333 52.667 -69.666 79 -132.999 79h-132z" />
    <glyph glyph-name="Ograve" unicode="&#xd2;" horiz-adv-x="282" 
d="M182 0h-84v750h84v-750zM100 -56h80v-100h-80v100z" />
    <glyph glyph-name="Oacute" unicode="&#xd3;" horiz-adv-x="282" 
d="M182 0h-84v750h84v-750zM272 944l48 0.00195312c-3.33301 -31.333 -13.833 -57.5 -31.5 -78.5s-41.167 -31.5 -70.5 -31.5c-10 0 -22 2 -36 6c-17.333 6 -29.333 10 -36 12c-12 4 -24.333 8.33301 -37 13s-24.334 7 -35.001 7c-12 0 -22.333 -4.33301 -31 -13
s-13.667 -19 -15 -31h-48c0 29.333 9.33301 54.666 28 75.999s43.334 32 74.001 32c9.33301 0 20.333 -1.83301 33 -5.5s25 -7.83398 37 -12.501c22.667 -8 34.667 -12.333 36 -13c14.667 -4.66699 27.334 -7 38.001 -7s20.667 4.83301 30 14.5s14.666 20.167 15.999 31.5z
" />
    <glyph glyph-name="Ocircumflex" unicode="&#xd4;" horiz-adv-x="530" 
d="M428 708c4 0.666992 11.168 4.66797 21.501 12.001s17.166 12.666 20.499 15.999c8.66699 8 14.5 16.667 17.5 26s4.5 20 4.5 32h-56v62h96v-88c0 -18.667 -10 -38 -30 -58c-8.66699 -8 -16.334 -14.333 -23.001 -19s-13 -8.33398 -19 -11.001
c23.333 -35.333 40.333 -80.333 51 -135c8.66699 -44 13 -95 13 -153c0 -82.667 -5 -149 -15 -199c-13.333 -66.667 -36.666 -117 -69.999 -151c-38.667 -40 -93 -60 -163 -60c-68 0 -121.333 20 -160 60c-33.333 34 -56.666 84.333 -69.999 151
c-10.667 52.667 -16 119 -16 199c0 72 4.66699 129.667 14 173c13.333 62.667 36.666 110.334 69.999 143.001c39.333 38.667 94 58 164 58c36 0 65 -4.5 87 -13.5s43 -23.833 63 -44.5zM438.001 390.001c0 94 -10.666 164.667 -31.999 212
c-26.667 58.667 -70.667 88 -132 88c-58 0 -100 -27.667 -126 -83c-22.667 -48 -34 -115.667 -34 -203l2 -14c0 -119.333 9.33301 -202 28 -248c22.667 -56 66.667 -84 132 -84s109.666 28 132.999 84c19.333 46 29 128.667 29 248z" />
    <glyph glyph-name="Otilde" unicode="&#xd5;" horiz-adv-x="40" 
d="M-158 944l47.999 0.00195312c-3.33301 -31.333 -13.833 -57.5 -31.5 -78.5s-41.167 -31.5 -70.5 -31.5c-10 0 -22 2 -36 6c-17.333 6 -29.333 10 -36 12l-36.5 13c-13 4.66699 -24.833 7 -35.5 7c-12 0 -22.333 -4.33301 -31 -13s-13.667 -19 -15 -31h-48
c0 29.333 9.33301 54.666 28 75.999s43.334 32 74.001 32c9.33301 0 20.333 -1.83301 33 -5.5s25 -7.83398 37 -12.501c22.667 -8 34.667 -12.333 36 -13c14.667 -4.66699 27.334 -7 38.001 -7s20.667 4.83301 30 14.5s14.666 20.167 15.999 31.5z" />
    <glyph glyph-name="Odieresis" unicode="&#xd6;" horiz-adv-x="542" 
d="M502 716c4.66699 1.33301 11.332 4.99902 19.999 10.999c2.66699 2 6.33398 5 11.001 9s8 8.83301 10 14.5s3 10.834 3 15.501v24h-56v62h96v-88c0 -18.667 -10 -38 -30 -58c-7.33301 -6.66699 -16.333 -12.667 -27 -18c-3.33301 -1.33301 -12.333 -5.33301 -27 -12v-494
c0 -65.333 -20.167 -115 -60.5 -149s-95.5 -51 -165.5 -51s-124.333 16.333 -163 49c-40.667 34.667 -61 85 -61 151v568h82v-538c0 -43.333 7 -76.333 21 -99c22.667 -36.667 63 -55 121 -55c54.667 0 93.667 16.333 117 49c16.667 23.333 25 54.333 25 93v550h84v-34z" />
    <glyph glyph-name="multiply" unicode="&#xd7;" 
d="M202 254l-158 158l50 48l156 -156l158 158l50 -50l-158 -158l158 -156l-50 -50l-158 158l-158 -158l-48 50z" />
    <glyph glyph-name="Oslash" unicode="&#xd8;" horiz-adv-x="40" 
d="M-412 948h108l90 -142h-68z" />
    <glyph glyph-name="Ugrave" unicode="&#xd9;" horiz-adv-x="40" 
d="M-344 806l90 142h108l-130 -142h-68z" />
    <glyph glyph-name="Uacute" unicode="&#xda;" horiz-adv-x="40" 
d="M-134 912c-6 -35.333 -22.833 -64.5 -50.5 -87.5s-59.5 -34.5 -95.5 -34.5c-37.333 0 -69.833 11.333 -97.5 34s-44.5 52 -50.5 88h64c13.333 -40 41.333 -60 84 -60c18 0 34.333 5.5 49 16.5s25 25.5 31 43.5h66zM-186 1032
c-4.66699 -18 -12.668 -34.334 -24.001 -49.001c-8.66699 -11.333 -22.667 -25 -42 -41l-4 -10v-34h-42v14c0 18 1.5 32.5 4.5 43.5s10.167 22.5 21.5 34.5c6 8 10.833 14.833 14.5 20.5s7.5 12.167 11.5 19.5c0 13.333 -3.66699 25 -11 35s-17.666 15 -30.999 15
c-20 0 -33.667 -5.16699 -41 -15.5s-11 -25.166 -11 -44.499h-48v6c0 24 8.66699 45 26 63c20 20.667 46.667 31 80 31c30.667 0 55 -9.33301 73 -28c15.333 -16 23 -36 23 -60z" />
    <glyph glyph-name="Ucircumflex" unicode="&#xdb;" horiz-adv-x="40" 
d="M-192 922c-4.66699 -18 -12.668 -34.334 -24.001 -49.001c-8.66699 -11.333 -22.667 -25 -42 -41l-4 -10v-34h-42v14c0 18 1.5 32.5 4.5 43.5s10.167 22.5 21.5 34.5c6 8 10.833 14.833 14.5 20.5s7.5 12.167 11.5 19.5c0 13.333 -3.66699 25 -11 35
s-17.666 15 -30.999 15c-20 0 -33.667 -5.16699 -41 -15.5s-11 -25.166 -11 -44.499h-48v6c0 24 8.66699 45 26 63c20 20.667 46.667 31 80 31c30.667 0 55 -9.33301 73 -28c15.333 -16 23 -36 23 -60z" />
    <glyph glyph-name="Udieresis" unicode="&#xdc;" horiz-adv-x="40" 
d="M-134 912c-6 -35.333 -22.833 -64.5 -50.5 -87.5s-59.5 -34.5 -95.5 -34.5c-37.333 0 -69.833 11.333 -97.5 34s-44.5 52 -50.5 88h64c13.333 -40 41.333 -60 84 -60c18 0 34.333 5.5 49 16.5s25 25.5 31 43.5h66zM-80 1066l47.9971 0.000976562
c0 -30.667 -9.16699 -56.667 -27.5 -78s-43.166 -32 -74.499 -32c-10 0 -21.667 2 -35 6c-16.667 6 -28.334 10 -35.001 12c-22.667 8 -34.667 12.333 -36 13c-14.667 4.66699 -27.334 7 -38.001 7s-20.667 -4.5 -30 -13.5s-14.666 -19.167 -15.999 -30.5h-48
c3.33301 30 13.833 55.5 31.5 76.5s41.167 31.5 70.5 31.5c9.33301 0 20.833 -1.83301 34.5 -5.5s26.334 -7.83398 38.001 -12.501s23.834 -9.16699 36.501 -13.5s24.334 -6.5 35.001 -6.5c12 0 22.333 4.66699 31 14s13.667 20 15 32z" />
    <glyph glyph-name="Yacute" unicode="&#xdd;" horiz-adv-x="282" 
d="M182 0h-84v750h84v-750zM200 810l-66 94l-66 -94h-80l98 142h94l100 -142h-80z" />
    <glyph glyph-name="Thorn" unicode="&#xde;" horiz-adv-x="611" 
d="M162 195l267.001 429c-24 44 -65 66 -123 66c-58.667 0 -101.334 -28.667 -128.001 -86c-22 -48 -33 -118.667 -33 -212c0 -82 5.66699 -147.667 17 -197zM449.001 574l-270 -434.998c12 -26 28.5 -46.167 49.5 -60.5s47.5 -21.5 79.5 -21.5c64 0 108 28.667 132 86
c19.333 48 29 131 29 249v14v12c0 9.33301 -0.166992 19.666 -0.5 30.999s-1.5 25.666 -3.5 42.999c0 18 -2 35 -6 51c-0.666992 2.66699 -4 13 -10 31zM130.001 61.002l-63.998 -104l-37 24l76 122c-17.333 34 -29.333 75.667 -36 125c-2.66699 21.333 -5 47.166 -7 77.499
s-3 59.833 -3 88.5c0 142 23.667 241.667 71 299c40 48 99 72 177 72c74 0 130.333 -21.667 169 -65l60 96l37 -22l-70 -112c19.333 -34 33.333 -76.333 42 -127c2.66699 -17.333 5 -38.666 7 -63.999s3 -51 3 -77c0 -82 -5.33301 -148.333 -16 -199
c-14 -68.667 -37.667 -119.667 -71 -153c-38 -40 -92.333 -60 -163 -60c-38.667 0 -72.834 7 -102.501 21s-53.834 33.333 -72.501 58z" />
    <glyph glyph-name="germandbls" unicode="&#xdf;" horiz-adv-x="500" 
d="M231 393l0.00292969 67.0029c37.333 0 65.333 9 84 27s28 46.667 28 86c0 37.333 -7.66699 66.666 -23 87.999c-17.333 24.667 -44 37 -80 37c-16 0 -30 -4 -42 -12s-23.333 -19.333 -34 -34c-6 -12 -10 -26.333 -12 -43l-2 -55v-554h-79v538c0 39.333 2 70.666 6 93.999
c2 11.333 5.83301 22.666 11.5 33.999s13.5 23.333 23.5 36c15.333 20.667 35.166 36.334 59.499 47.001s50.166 16 77.499 16c52.667 0 94.167 -17.167 124.5 -51.5s45.5 -78.833 45.5 -133.5c0 -36 -5.66699 -65.833 -17 -89.5s-32 -43.167 -62 -58.5
c40 -16 68.333 -43.667 85 -83c13.333 -32 20 -72.667 20 -122c0 -66 -10.333 -118.667 -31 -158c-26 -49.333 -67.667 -74 -125 -74l-39 3c-10 0.666992 -20 4.66699 -30 12v78c8.66699 -6.66699 19.334 -13 32.001 -19c6 -2.66699 11.833 -4.66699 17.5 -6
s12.5 -2 20.5 -2l14 1c22 5.33301 38 24.666 48 57.999c7.33301 26 11 57 11 93v19v11c0 27.333 -1.66699 48 -5 62c-5.33301 28.667 -14 48.667 -26 60c-10.667 11.333 -23.334 18.833 -38.001 22.5s-31.334 5.5 -50.001 5.5h-13z" />
    <glyph glyph-name="agrave" unicode="&#xe0;" horiz-adv-x="40" 
d="M-160 608l-66 94l-66 -94h-80l98 142h94l100 -142h-80zM-224 870h108l90 -142h-68z" />
    <glyph glyph-name="aacute" unicode="&#xe1;" horiz-adv-x="40" 
d="M-160 608l-66 94l-66 -94h-80l98 142h94l100 -142h-80zM-114 728l90 142h108l-130 -142h-68z" />
    <glyph glyph-name="acircumflex" unicode="&#xe2;" horiz-adv-x="40" 
d="M-160 608l-66 94l-66 -94h-80l98 142h94l100 -142h-80z" />
    <glyph glyph-name="atilde" unicode="&#xe3;" horiz-adv-x="40" 
d="M-160 608l-66 94l-66 -94h-80l98 142h94l100 -142h-80zM-104 914l47.999 0.00195312c-3.33301 -31.333 -13.833 -57.5 -31.5 -78.5s-41.167 -31.5 -70.5 -31.5c-10 0 -22 2 -36 6c-17.333 6 -29.333 10 -36 12l-36.5 13c-13 4.66699 -24.833 7 -35.5 7
c-12 0 -22.333 -4.33301 -31 -13s-13.667 -19 -15 -31h-48c0 29.333 9.33301 54.666 28 75.999s43.334 32 74.001 32c9.33301 0 20.333 -1.83301 33 -5.5s25 -7.83398 37 -12.501c22.667 -8 34.667 -12.333 36 -13c14.667 -4.66699 27.334 -7 38.001 -7
s20.667 4.83301 30 14.5s14.666 20.167 15.999 31.5z" />
    <glyph glyph-name="adieresis" unicode="&#xe4;" horiz-adv-x="40" 
d="M-160 608l-66 94l-66 -94h-80l98 142h94l100 -142h-80zM-188 -156h-80v100h80v-100z" />
    <glyph glyph-name="aring" unicode="&#xe5;" horiz-adv-x="40" 
d="M-160 608l-66 94l-66 -94h-80l98 142h94l100 -142h-80zM6 848c-4.66699 -18 -12.668 -34.334 -24.001 -49.001c-8.66699 -11.333 -22.667 -25 -42 -41l-4 -10v-34h-42v14c0 18 1.5 32.5 4.5 43.5s10.167 22.5 21.5 34.5c6 8 10.833 14.833 14.5 20.5
s7.5 12.167 11.5 19.5c0 13.333 -3.66699 25 -11 35s-17.666 15 -30.999 15c-20 0 -33.667 -5.16699 -41 -15.5s-11 -25.166 -11 -44.499h-48v6c0 24 8.66699 45 26 63c20 20.667 46.667 31 80 31c30.667 0 55 -9.33301 73 -28c15.333 -16 23 -36 23 -60z" />
    <glyph glyph-name="ae" unicode="&#xe6;" horiz-adv-x="224" 
d="M152 0h-80v556h80v-556zM208 728c-4.66699 -18 -12.668 -34.333 -24.001 -49c-8.66699 -11.333 -22.667 -25 -42 -41l-4 -10l-2 -12l2 -22h-42l-2 14c0 17.333 1.83301 31.666 5.5 42.999s11.167 23 22.5 35c6 8 10.833 14.833 14.5 20.5s7.5 12.167 11.5 19.5
c0 13.333 -3.66699 25 -11 35s-17.666 15 -30.999 15c-20 0 -33.667 -5.16699 -41 -15.5s-11 -25.166 -11 -44.499h-48l-2 6c0 24 9 45 27 63c20.667 20.667 47.667 31 81 31c30.667 0 55 -9.33301 73 -28c15.333 -16 23 -36 23 -60z" />
    <glyph glyph-name="ccedilla" unicode="&#xe7;" horiz-adv-x="448" 
d="M236 504c-46 0 -77.665 -26.999 -94.998 -80.999c-11.333 -34.667 -17 -83 -17 -145l2 -24c0 -56 5 -98.667 15 -128c16.667 -49.333 47 -74 91 -74c38.667 0 65.667 15 81 45c11.333 22 17 54.333 17 97h76c0 -60 -12.333 -108.333 -37 -145
c-29.333 -43.333 -73 -65 -131 -65c-76.667 0 -130.334 30 -161.001 90c-22 43.333 -33 109.333 -33 198c0 114 18.667 194.333 56 241c31.333 39.333 76.666 59 135.999 59c54 0 95.667 -18.667 125 -56c27.333 -34.667 41 -79.334 41 -134.001h-74c0 35.333 -6 63 -18 83
c-15.333 26 -40 39 -74 39zM174.002 -105.999l-16 20l62 86h48l-46 -62c2 0 5.66699 0.666992 11 2s9.66602 2 12.999 2c22.667 0 42.667 -5.33301 60 -16c21.333 -13.333 32 -32.666 32 -57.999c0 -32 -13.333 -56 -40 -72c-22 -13.333 -50 -20 -84 -20h-8
c-30 4 -58 10.667 -84 20l18 40c12 -4.66699 19.667 -7.33398 23 -8.00098c14 -4 27.667 -6 41 -6c14.667 0 25.334 1.66699 32.001 5s14 9 22 17c2.66699 2.66699 4 8 4 16c0 7.33301 -2.33301 14.5 -7 21.5s-11.667 12.5 -21 16.5l-22 4
c-4.66699 0 -10.667 -0.833008 -18 -2.5s-14 -3.5 -20 -5.5z" />
    <glyph glyph-name="egrave" unicode="&#xe8;" horiz-adv-x="40" 
d="M-84 732c-6 -35.333 -22.833 -64.5 -50.5 -87.5s-59.5 -34.5 -95.5 -34.5c-37.333 0 -69.833 11.333 -97.5 34s-44.5 52 -50.5 88h64c13.333 -40 41.333 -60 84 -60c18 0 34.333 5.5 49 16.5s25 25.5 31 43.5h66zM-390 888h108l90 -142h-68z" />
    <glyph glyph-name="eacute" unicode="&#xe9;" horiz-adv-x="40" 
d="M-84 732c-6 -35.333 -22.833 -64.5 -50.5 -87.5s-59.5 -34.5 -95.5 -34.5c-37.333 0 -69.833 11.333 -97.5 34s-44.5 52 -50.5 88h64c13.333 -40 41.333 -60 84 -60c18 0 34.333 5.5 49 16.5s25 25.5 31 43.5h66zM-262 746l90 142h108l-130 -142h-68z" />
    <glyph glyph-name="ecircumflex" unicode="&#xea;" horiz-adv-x="40" 
d="M-84 732c-6 -35.333 -22.833 -64.5 -50.5 -87.5s-59.5 -34.5 -95.5 -34.5c-37.333 0 -69.833 11.333 -97.5 34s-44.5 52 -50.5 88h64c13.333 -40 41.333 -60 84 -60c18 0 34.333 5.5 49 16.5s25 25.5 31 43.5h66z" />
    <glyph glyph-name="edieresis" unicode="&#xeb;" horiz-adv-x="40" 
d="M-84 732c-6 -35.333 -22.833 -64.5 -50.5 -87.5s-59.5 -34.5 -95.5 -34.5c-37.333 0 -69.833 11.333 -97.5 34s-44.5 52 -50.5 88h64c13.333 -40 41.333 -60 84 -60c18 0 34.333 5.5 49 16.5s25 25.5 31 43.5h66zM-188 -156h-80v100h80v-100z" />
    <glyph glyph-name="igrave" unicode="&#xec;" horiz-adv-x="224" 
d="M152 0h-80v556h80v-556zM-32 756h110l88 -142h-66z" />
    <glyph glyph-name="iacute" unicode="&#xed;" horiz-adv-x="224" 
d="M152 0h-80v556h80v-556zM50 614l88 142h110l-132 -142h-66z" />
    <glyph glyph-name="icircumflex" unicode="&#xee;" horiz-adv-x="448" 
d="M182 -14l-175.998 569.999h82l124 -482l132 482h82l-166 -530c-13.333 -44 -20.666 -68.667 -21.999 -74c-10.667 -32.667 -20 -56 -28 -70c-14.667 -25.333 -32.334 -43.666 -53.001 -54.999s-45.667 -17 -75 -17c-6.66699 0 -14.334 0.166992 -23.001 0.5
s-19.667 2.83301 -33 7.5v70c18 -8 37.333 -12 58 -12c36 0 61.333 17 76 51c9.33301 26 16.666 45.667 21.999 59zM362.002 -156.001h-80v100h80v-100z" />
    <glyph glyph-name="idieresis" unicode="&#xef;" horiz-adv-x="40" 
d="M-188 -154h-80v100h80v-100z" />
    <glyph glyph-name="eth" unicode="&#xf0;" horiz-adv-x="224" 
d="M152 0h-80v556h80v-556zM6 732h80v-100h-80v100zM236 632h-80v100h80v-100z" />
    <glyph glyph-name="ntilde" unicode="&#xf1;" 
d="M346 686l-0.00195312 63.998h78v-64h36v-66h-36v-620h-76v74c-18.667 -34 -37.667 -57.5 -57 -70.5s-45.666 -19.5 -78.999 -19.5c-74.667 0 -124 43 -148 129c-10.667 38 -16 93.667 -16 167l-2 22c0 78.667 14 142.334 42 191.001c30.667 52.667 73.334 79 128.001 79
c26.667 0 49.667 -5.66699 69 -17s39 -29.666 59 -54.999l2 120h-98v66h98zM345.998 217.998v69.999c0 60 -4.66699 105.333 -14 136c-16.667 53.333 -48 80 -94 80c-35.333 0 -62 -15.667 -80 -47c-20 -35.333 -30 -93.666 -30 -174.999c0 -96.667 9 -159.167 27 -187.5
s46.333 -42.5 85 -42.5c36.667 0 64.667 19.667 84 59c14.667 30 22 65.667 22 107z" />
    <glyph glyph-name="ograve" unicode="&#xf2;" horiz-adv-x="224" 
d="M152 0h-80v556h80v-556zM152 650h-80v100h80v-100zM152 -156h-80v100h80v-100z" />
    <glyph glyph-name="oacute" unicode="&#xf3;" horiz-adv-x="224" 
d="M152 0h-80v556h80v-556zM236 750l48 0.00195312c-3.33301 -31.333 -13.833 -57.5 -31.5 -78.5s-41.167 -31.5 -70.5 -31.5c-10 0 -22 2 -36 6c-17.333 6 -29.333 10 -36 12c-12 4 -24.333 8.33301 -37 13s-24.334 7 -35.001 7c-12 0 -22.333 -4.33301 -31 -13
s-13.667 -19 -15 -31h-48c0 29.333 9.33301 54.666 28 75.999s43.334 32 74.001 32c9.33301 0 20.333 -1.83301 33 -5.5s25 -7.83398 37 -12.501c22.667 -8 34.667 -12.333 36 -13c14.667 -4.66699 27.334 -7 38.001 -7s20.667 4.83301 30 14.5s14.666 20.167 15.999 31.5z
" />
    <glyph glyph-name="ocircumflex" unicode="&#xf4;" horiz-adv-x="424" 
d="M372 486c15.333 -23.333 27.167 -50.832 35.5 -82.499s12.5 -66.834 12.5 -105.501c0 -115.333 -18 -198 -54 -248c-31.333 -44 -80 -66 -146 -66c-64 0 -112 22.333 -144 67c-36 50.667 -54 133 -54 247c0 86.667 16.5 154 49.5 202s82.5 72 148.5 72
c28 0 53.167 -5 75.5 -15s41.833 -24.333 58.5 -43c3.33301 0.666992 8 4 14 10l12 12c5.33301 4 9 8.83301 11 14.5s3 10.834 3 15.501v22h-56v62h96v-14v-31c-2 -16 -3.33301 -27 -4 -33c0 -16.667 -5.16699 -32.834 -15.5 -48.501s-24.5 -28.167 -42.5 -37.5z
M338.001 272.001c0 84 -9 143.667 -27 179s-48.333 53 -91 53c-40.667 0 -70.167 -18 -88.5 -54s-27.5 -95.333 -27.5 -178c0 -72 7.66699 -125 23 -159c18 -40.667 49 -61 93 -61s75.333 20.333 94 61c16 34.667 24 87.667 24 159z" />
    <glyph glyph-name="otilde" unicode="&#xf5;" horiz-adv-x="40" 
d="M-104 750l47.999 0.00195312c-3.33301 -31.333 -13.833 -57.5 -31.5 -78.5s-41.167 -31.5 -70.5 -31.5c-10 0 -22 2 -36 6c-17.333 6 -29.333 10 -36 12l-36.5 13c-13 4.66699 -24.833 7 -35.5 7c-12 0 -22.333 -4.33301 -31 -13s-13.667 -19 -15 -31h-48
c0 29.333 9.33301 54.666 28 75.999s43.334 32 74.001 32c9.33301 0 20.333 -1.83301 33 -5.5s25 -7.83398 37 -12.501c22.667 -8 34.667 -12.333 36 -13c14.667 -4.66699 27.334 -7 38.001 -7s20.667 4.83301 30 14.5s14.666 20.167 15.999 31.5z" />
    <glyph glyph-name="odieresis" unicode="&#xf6;" horiz-adv-x="434" 
d="M412 484l-18.001 -7.99707v-476h-78v74c-31.333 -60 -76 -90 -134 -90c-42.667 0 -75.667 12 -99 36s-35 60 -35 108v428h78v-432c0 -24 5.33301 -42 16 -54s29.334 -18 56.001 -18c40 0 71.333 16.667 94 50c8.66699 13.333 14.834 28.166 18.501 44.499
s5.5 34.166 5.5 53.499v356h78v-40c3.33301 0.666992 7.5 3.16699 12.5 7.5l14 12.5c4.33301 4 7.66602 8.66699 9.99902 14s3.5 10 3.5 14v22h-56v62h96v-34v-17v-15c-1.33301 -6 -2 -10 -2 -12c0 -16.667 -5.5 -32.834 -16.5 -48.501s-25.5 -28.167 -43.5 -37.5z" />
    <glyph glyph-name="divide" unicode="&#xf7;" 
d="M44 220v70h414v-70h-414zM290 406h-80v100h80v-100zM290 4h-80v100h80v-100z" />
    <glyph glyph-name="oslash" unicode="&#xf8;" horiz-adv-x="40" 
d="M-358 766h108l90 -142h-68z" />
    <glyph glyph-name="ugrave" unicode="&#xf9;" horiz-adv-x="40" 
d="M-294 624l90 142h108l-130 -142h-68z" />
    <glyph glyph-name="uacute" unicode="&#xfa;" horiz-adv-x="40" 
d="M-84 732c-6 -35.333 -22.833 -64.5 -50.5 -87.5s-59.5 -34.5 -95.5 -34.5c-37.333 0 -69.833 11.333 -97.5 34s-44.5 52 -50.5 88h64c13.333 -40 41.333 -60 84 -60c18 0 34.333 5.5 49 16.5s25 25.5 31 43.5h66zM-134 856c-4.66699 -18 -12.668 -34.334 -24.001 -49.001
c-8.66699 -11.333 -22.667 -25 -42 -41l-4 -10v-34h-42v14c0 18 1.5 32.5 4.5 43.5s10.167 22.5 21.5 34.5c6 8 10.833 14.833 14.5 20.5s7.5 12.167 11.5 19.5c0 13.333 -3.66699 25 -11 35s-17.666 15 -30.999 15c-20 0 -33.667 -5.16699 -41 -15.5
s-11 -25.166 -11 -44.499h-48v6c0 24 8.66699 45 26 63c20 20.667 46.667 31 80 31c30.667 0 55 -9.33301 73 -28c15.333 -16 23 -36 23 -60z" />
    <glyph glyph-name="ucircumflex" unicode="&#xfb;" horiz-adv-x="40" 
d="M-142 744c-4.66699 -18 -12.668 -34.334 -24.001 -49.001c-8.66699 -11.333 -22.667 -25 -42 -41l-4 -10v-34h-42v14c0 18 1.5 32.5 4.5 43.5s10.167 22.5 21.5 34.5c6 8 10.833 14.833 14.5 20.5s7.5 12.167 11.5 19.5c0 13.333 -3.66699 25 -11 35
s-17.666 15 -30.999 15c-20 0 -33.667 -5.16699 -41 -15.5s-11 -25.166 -11 -44.499h-48v6c0 24 8.66699 45 26 63c20 20.667 46.667 31 80 31c30.667 0 55 -9.33301 73 -28c15.333 -16 23 -36 23 -60z" />
    <glyph glyph-name="udieresis" unicode="&#xfc;" horiz-adv-x="40" 
d="M-84 732c-6 -35.333 -22.833 -64.5 -50.5 -87.5s-59.5 -34.5 -95.5 -34.5c-37.333 0 -69.833 11.333 -97.5 34s-44.5 52 -50.5 88h64c13.333 -40 41.333 -60 84 -60c18 0 34.333 5.5 49 16.5s25 25.5 31 43.5h66zM-16 890l47.999 0.00195312
c-3.33301 -31.333 -13.833 -57.5 -31.5 -78.5s-41.167 -31.5 -70.5 -31.5c-10 0 -22 2 -36 6c-17.333 6 -29.333 10 -36 12l-36.5 13c-13 4.66699 -24.833 7 -35.5 7c-12 0 -22.333 -4.33301 -31 -13s-13.667 -19 -15 -31h-48c0 29.333 9.33301 54.666 28 75.999
s43.334 32 74.001 32c9.33301 0 20.333 -1.83301 33 -5.5s25 -7.83398 37 -12.501c22.667 -8 34.667 -12.333 36 -13c14.667 -4.66699 27.334 -7 38.001 -7s20.667 4.83301 30 14.5s14.666 20.167 15.999 31.5z" />
    <glyph glyph-name="yacute" unicode="&#xfd;" horiz-adv-x="224" 
d="M152 0h-80v556h80v-556zM176 614l-66 94l-66 -94h-80l98 142h94l100 -142h-80z" />
    <glyph glyph-name="thorn" unicode="&#xfe;" horiz-adv-x="500" 
d="M147 151l197 286.002c-16 44.667 -47 67 -93 67c-42 0 -72.167 -17.333 -90.5 -52s-27.5 -94.334 -27.5 -179.001l3 -62c0.666992 -8 2 -17.333 4 -28s4.33301 -21.334 7 -32.001zM356 391.002l-194 -282.999c8 -18.667 19.5 -32.667 34.5 -42s33.167 -14 54.5 -14
c44 0 75 20.333 93 61c15.333 34.667 23 88 23 160l-3 64c-1.33301 14 -2.5 24.167 -3.5 30.5s-2.5 14.166 -4.5 23.499zM115 40.0029l-58.998 -86.002l-31 19l68 99c-10.667 19.333 -20.334 47.833 -29.001 85.5s-13 84.5 -13 140.5c0 86.667 16.167 153.834 48.5 201.501
s82.5 71.5 150.5 71.5c60 0 107.667 -21 143 -63l51 74l28 -23l-57 -83c9.33301 -16 17.333 -41 24 -75c2.66699 -14.667 5 -31.167 7 -49.5s3 -36.166 3 -53.499c0 -112 -18 -194 -54 -246c-31.333 -44.667 -77 -67 -137 -67c-62.667 0 -110.334 18.333 -143.001 55z" />
    <glyph glyph-name="ydieresis" unicode="&#xff;" horiz-adv-x="448" 
d="M182 -14l-175.998 569.999h82l124 -482l132 482h82l-166 -530c-13.333 -44 -20.666 -68.667 -21.999 -74c-10.667 -32.667 -20 -56 -28 -70c-14.667 -25.333 -32.334 -43.666 -53.001 -54.999s-45.667 -17 -75 -17c-6.66699 0 -14.334 0.166992 -23.001 0.5
s-19.667 2.83301 -33 7.5v70c18 -8 37.333 -12 58 -12c36 0 61.333 17 76 51c9.33301 26 16.666 45.667 21.999 59zM362.002 -156.001h-80v100h80v-100z" />
    <glyph glyph-name="OE" unicode="&#x152;" horiz-adv-x="40" 
d="M-192 922c-4.66699 -18 -12.668 -34.334 -24.001 -49.001c-8.66699 -11.333 -22.667 -25 -42 -41l-4 -10v-34h-42v14c0 18 1.5 32.5 4.5 43.5s10.167 22.5 21.5 34.5c6 8 10.833 14.833 14.5 20.5s7.5 12.167 11.5 19.5c0 13.333 -3.66699 25 -11 35
s-17.666 15 -30.999 15c-20 0 -33.667 -5.16699 -41 -15.5s-11 -25.166 -11 -44.499h-48v6c0 24 8.66699 45 26 63c20 20.667 46.667 31 80 31c30.667 0 55 -9.33301 73 -28c15.333 -16 23 -36 23 -60z" />
    <glyph glyph-name="oe" unicode="&#x153;" horiz-adv-x="40" 
d="M-142 744c-4.66699 -18 -12.668 -34.334 -24.001 -49.001c-8.66699 -11.333 -22.667 -25 -42 -41l-4 -10v-34h-42v14c0 18 1.5 32.5 4.5 43.5s10.167 22.5 21.5 34.5c6 8 10.833 14.833 14.5 20.5s7.5 12.167 11.5 19.5c0 13.333 -3.66699 25 -11 35
s-17.666 15 -30.999 15c-20 0 -33.667 -5.16699 -41 -15.5s-11 -25.166 -11 -44.499h-48v6c0 24 8.66699 45 26 63c20 20.667 46.667 31 80 31c30.667 0 55 -9.33301 73 -28c15.333 -16 23 -36 23 -60z" />
    <glyph glyph-name="Scaron" unicode="&#x160;" horiz-adv-x="40" 
d="M-386 890h80v-100h-80v100zM-156 790h-80v100h80v-100z" />
    <glyph glyph-name="scaron" unicode="&#x161;" horiz-adv-x="40" 
d="M-324 714h80v-100h-80v100zM-94 614h-80v100h80v-100z" />
    <glyph glyph-name="Ydieresis" unicode="&#x178;" horiz-adv-x="564" 
d="M104 750l174 -376l176 376h92l-226 -458v-292h-84v292l-224 458h92zM240 -60h80v-100h-80v100z" />
    <glyph glyph-name="florin" unicode="&#x192;" horiz-adv-x="500" 
d="M10 -179l10.002 67.998c9.33301 -7.33301 24 -11 44 -11l27 3c9.33301 2 18.333 5.66699 27 11s18 25 28 59l20 94l60 363h-110v67h122c15.333 87.333 29.666 146 42.999 176c29.333 66 75 99 137 99c27.333 0 50.666 -3.66699 69.999 -11l-17 -77
c-13.333 14 -31 21 -53 21c-26 0 -46.333 -13.667 -61 -41c-3.33301 -6.66699 -6.5 -15.667 -9.5 -27l-13.5 -51l-17 -89h121v-67h-130l-52 -329c-8 -54 -19 -102 -33 -144c-18 -55.333 -38.667 -89.666 -62 -102.999c-4.66699 -2.66699 -10.5 -5.5 -17.5 -8.5
s-14.833 -5.66699 -23.5 -8s-16.5 -4.16602 -23.5 -5.49902s-14.833 -2 -23.5 -2c-22.667 0 -43.667 4.33301 -63 13z" />
    <glyph glyph-name="circumflex" unicode="&#x2c6;" horiz-adv-x="342" 
 />
    <glyph glyph-name="tilde" unicode="&#x2dc;" horiz-adv-x="40" 
d="M-233 861c38 0 66 -11.999 84 -35.999c14.667 -20 22 -46 22 -78c0 -79.333 -32.667 -119 -98 -119l-14 1c-35.333 0 -61 8.66699 -77 26c-18 19.333 -27 50.666 -27 93.999c0 33.333 7.66699 59.333 23 78c18.667 22.667 47.667 34 87 34zM-236 665.001
c22 0 37.333 8.33301 46 25c6 12 9 28 9 48c0 26 -2 44.333 -6 55c-8 21.333 -24.333 32 -49 32c-23.333 0 -39 -10.333 -47 -31c-4.66699 -12 -7 -30.667 -7 -56c0 -19.333 3 -35 9 -47c8.66699 -17.333 23.667 -26 45 -26z" />
    <glyph glyph-name="endash" unicode="&#x2013;" horiz-adv-x="546" 
d="M0 276v70h500v-70h-500z" />
    <glyph glyph-name="emdash" unicode="&#x2014;" horiz-adv-x="1047" 
d="M0 276v70h1000v-70h-1000z" />
    <glyph glyph-name="quoteleft" unicode="&#x2018;" horiz-adv-x="224" 
d="M158 768l-0.000976562 -46c-22 -4 -36.333 -22.333 -43 -55c-3.33301 -16 -5 -31.667 -5 -47h48v-98h-94l2 98c0 36.667 6 66.667 18 90c14.667 28.667 39.334 48 74.001 58z" />
    <glyph glyph-name="quoteright" unicode="&#x2019;" horiz-adv-x="224" 
d="M64 504v46.001c19.333 3.33301 33 16.666 41 39.999c6 17.333 9 38 9 62h-50v98h94v-98c0 -36.667 -6.33301 -66.667 -19 -90c-15.333 -28.667 -40.333 -48 -75 -58z" />
    <glyph glyph-name="quotesinglbase" unicode="&#x201a;" horiz-adv-x="833" 
d="M229 290h197v385h-14zM427 0v215h-233l-100 -215h-94l366 750h419v-75h-276v-248h257v-75h-257v-277h273v-75h-355z" />
    <glyph glyph-name="quotedblleft" unicode="&#x201c;" horiz-adv-x="400" 
d="M156 768v-46c-22 -4 -36.333 -22.333 -43 -55c-3.33301 -16 -5 -31.667 -5 -47h48v-98h-94l2 98c0 36 5.66699 65.333 17 88c15.333 30 40.333 50 75 60zM328 768l0.000976562 -46.002c-19.333 -3.33301 -32.5 -15.166 -39.5 -35.499s-10.5 -42.5 -10.5 -66.5h50v-98h-94
v98c0 36.667 6 66.334 18 89.001c15.333 29.333 40.666 49 75.999 59z" />
    <glyph glyph-name="quotedblright" unicode="&#x201d;" horiz-adv-x="400" 
d="M62 504l-0.000976562 46.002c19.333 3.33301 33 16.666 41 39.999c6 17.333 9 38 9 62h-50v98h94v-98c0 -36.667 -6 -66.334 -18 -89.001c-15.333 -29.333 -40.666 -49 -75.999 -59zM233.999 504.002v46c22 4 36.333 22.333 43 55c3.33301 16 5 31.667 5 47h-48v98h94
l-2 -98c0 -36 -6 -65.667 -18 -89c-15.333 -29.333 -40 -49 -74 -59z" />
    <glyph glyph-name="quotedblbase" unicode="&#x201e;" horiz-adv-x="667" 
d="M288 218l-0.000976562 81.001l-57 -27c-54 -24.667 -88 -45.834 -102 -63.501s-21 -41.5 -21 -71.5c0 -26 6.16699 -46.667 18.5 -62s31.833 -23 58.5 -23c36.667 0 65.334 13.667 86.001 41c10 13.333 15 31 15 53zM369.999 335.001h178v16
c0 52.667 -7.33301 91 -22 115s-35.667 36 -63 36c-40.667 0 -68 -19 -82 -57c-3.33301 -10 -6 -24.167 -8 -42.5s-3 -40.833 -3 -67.5zM629.999 270.001l-259.999 -0.00292969l-1 -35c0 -14.667 0.333008 -29.334 1 -44.001s2.16699 -32.667 4.5 -54
s8.5 -40.666 18.5 -57.999c6 -9.33301 15 -16.666 27 -21.999c12 -3.33301 26 -5 42 -5c32.667 0 56.667 14 72 42c11.333 22.667 17 51.667 17 87h73c0 -56 -12.333 -101.667 -37 -137c-28 -39.333 -69.333 -59 -124 -59c-36 0 -64.667 7 -86 21s-40 37.333 -56 70
c-36.667 -60.667 -89.334 -91 -158.001 -91c-46 0 -80.333 13.667 -103 41s-34 63.666 -34 108.999c0 38.667 6.66699 70 20 94c11.333 20 28.666 37 51.999 51c13.333 8 31.333 16 54 24c64 22.667 101 36.334 111 41.001s17.833 13.334 23.5 26.001s8.5 26.334 8.5 41.001
c0 30 -6.83301 52.5 -20.5 67.5s-36.167 22.5 -67.5 22.5c-28.667 0 -50 -9 -64 -27c-12.667 -18 -19 -41.667 -19 -71h-75c0 43.333 10 79.666 30 108.999c26.667 38.667 68.667 58 126 58c26.667 0 51.667 -5.16699 75 -15.5s42.333 -26.166 57 -47.499
c30.667 40.667 71.334 61 122.001 61c73.333 0 123 -33.667 149 -101c14.667 -42 22 -108 22 -198z" />
    <glyph glyph-name="dagger" unicode="&#x2020;" horiz-adv-x="500" 
d="M210 -176v633h-170v70h170v223h80v-223h171v-70h-171v-633h-80z" />
    <glyph glyph-name="daggerdbl" unicode="&#x2021;" horiz-adv-x="500" 
d="M211 51h-172v70h171v328h-169v70h170v231h80v-231h171v-70h-171v-328h171v-70h-171v-227h-80v227z" />
    <glyph glyph-name="bullet" unicode="&#x2022;" horiz-adv-x="342" 
 />
    <glyph glyph-name="ellipsis" unicode="&#x2026;" horiz-adv-x="600" 
d="M172 0h-92v100h92v-100zM342 0h-92v100h92v-100zM512 0h-92v100h92v-100z" />
    <glyph glyph-name="perthousand" unicode="&#x2030;" horiz-adv-x="1111" 
d="M718 186c0 -69.333 -10.168 -117.667 -30.501 -145s-55.5 -41 -105.5 -41c-42 0 -74.833 14.5 -98.5 43.5s-35.5 77.5 -35.5 145.5c0 52.667 9.66699 93 29 121c23.333 34.667 60 52 110 52c46.667 0 81.334 -18.333 104.001 -55c18 -30 27 -70.333 27 -121z
M581.999 305.999c-28 0 -47.333 -16.332 -58 -48.999c-6 -20 -9 -49.333 -9 -88c0 -16.667 0.666992 -30.334 2 -41.001s4.33301 -21.334 9 -32.001c11.333 -26.667 30.333 -40 57 -40s45.667 13 57 39c7.33301 18.667 11 43.334 11 74.001c0 42 -2.66699 71 -8 87
c-10 33.333 -30.333 50 -61 50zM578.999 750l-341 -766h-53l339 766h55zM316.999 560c0 -68.667 -10.668 -116.167 -32.001 -142.5s-57 -39.5 -107 -39.5c-44 0 -76.333 13.333 -97 40c-22.667 30 -34 78.333 -34 145c0 52.667 9.66699 93 29 121
c23.333 34.667 60 52 110 52c46.667 0 81.334 -18.333 104.001 -55c18 -30 27 -70.333 27 -121zM180.998 680c-22 0 -39 -10.334 -51 -31.001c-10.667 -21.333 -16 -57.333 -16 -108c0 -31.333 3.66699 -54.666 11 -69.999c10 -24.667 29 -37 57 -37
c20.667 0 37.167 7.83301 49.5 23.5s18.5 43.5 18.5 83.5c0 42 -2.66699 71.333 -8 88c-10 34 -30.333 51 -61 51zM1071 185.999c0 -68 -10.1689 -116 -30.502 -144s-55.166 -42 -104.499 -42c-44 0 -77 14 -99 42c-24 30 -36 79 -36 147c0 52.667 9.66699 93 29 121
c23.333 34.667 60 52 110 52c46.667 0 81.334 -18.333 104.001 -55c18 -30 27 -70.333 27 -121zM934.996 305.999c-28 0 -47.333 -16.332 -58 -48.999c-6 -20 -9 -49.333 -9 -88c0 -16.667 0.666992 -30.334 2 -41.001s4.33301 -21.334 9 -32.001
c11.333 -26.667 30.333 -40 57 -40s45.667 13 57 39c7.33301 18.667 11 43.334 11 74.001c0 42 -2.66699 71 -8 87c-10 33.333 -30.333 50 -61 50z" />
    <glyph glyph-name="guilsinglleft" unicode="&#x2039;" horiz-adv-x="342" 
d="M86 342l150 154v-84l-100 -102l100 -102v-82l-150 156v60z" />
    <glyph glyph-name="guilsinglright" unicode="&#x203a;" horiz-adv-x="342" 
d="M236 278l-150 -152v82l100 102l-100 102v84l150 -156v-62z" />
    <glyph glyph-name="trademark" unicode="&#x2122;" horiz-adv-x="750" 
d="M719 750v-421h-55v361l-120 -361h-32l-115 361l-2 -361h-55v421h89l99 -297l103 297h88zM280 750v-60h-109v-361h-61v361h-110v60h280z" />
    <glyph glyph-name=".null" horiz-adv-x="0" 
 />
    <glyph glyph-name="nonmarkingreturn" horiz-adv-x="342" 
 />
  </font>
</defs>
</svg>
